<?xml version="1.0" encoding="UTF-8" standalone="no"?>
<!DOCTYPE svg PUBLIC "-//W3C//DTD SVG 1.1//EN" "http://www.w3.org/Graphics/SVG/1.1/DTD/svg11.dtd">
<svg width="100%" height="100%" viewBox="0 0 92 86" version="1.1" xmlns="http://www.w3.org/2000/svg" xmlns:xlink="http://www.w3.org/1999/xlink" xml:space="preserve" xmlns:serif="http://www.serif.com/" style="fill-rule:evenodd;clip-rule:evenodd;stroke-miterlimit:10;">
    <g transform="matrix(0.788631,-1.0751,-1.0751,-0.788631,69.1231,52.4415)">
        <path d="M-21.465,2.876C-23.367,4.271 -25.091,5.976 -26.56,7.978C-34.306,18.538 -32.024,33.376 -21.465,41.121C-10.906,48.867 3.933,46.587 11.679,36.027C17.672,27.857 17.662,17.123 12.458,9.096" style="fill:none;fill-rule:nonzero;stroke:rgb(56,62,100);stroke-width:1.54px;"/>
    </g>
    <g transform="matrix(0.521278,1.22721,1.22721,-0.521278,59.0955,20.043)">
        <path d="M-3.578,-5.407C-0.193,-4.568 3.875,-4.546 8.171,-5.407" style="fill:none;fill-rule:nonzero;stroke:rgb(56,62,100);stroke-width:1.54px;"/>
    </g>
    <g transform="matrix(1.33333,0,0,1.33333,28.8633,18.4691)">
        <path d="M0,37.182C-3.379,32.844 -5.552,26.073 -5.552,18.465C-5.552,11.003 -3.462,4.347 -0.194,0" style="fill:none;fill-rule:nonzero;stroke:rgb(56,62,100);stroke-width:1.54px;"/>
    </g>
    <g transform="matrix(0,1.33333,1.33333,0,67.0675,43.0886)">
        <path d="M-20.601,-20.601L20.601,-20.601" style="fill:none;fill-rule:nonzero;stroke:rgb(56,62,100);stroke-width:1.54px;"/>
    </g>
    <g transform="matrix(1.33333,0,0,1.33333,12.1309,43.0894)">
        <path d="M0,0L24.284,0" style="fill:none;fill-rule:nonzero;stroke:rgb(56,62,100);stroke-width:1.54px;"/>
    </g>
    <g transform="matrix(1.33333,0,0,1.33333,18.8874,24.9487)">
        <path d="M0,0L31.069,0" style="fill:none;fill-rule:nonzero;stroke:rgb(56,62,100);stroke-width:1.54px;"/>
    </g>
    <g transform="matrix(1.33333,0,0,1.33333,18.8893,61.2287)">
        <path d="M0,0L17.304,0" style="fill:none;fill-rule:nonzero;stroke:rgb(56,62,100);stroke-width:1.54px;"/>
    </g>
    <g transform="matrix(0,-1.33333,-1.33333,0,65.7262,36.533)">
        <circle cx="-14.26" cy="0" r="14.26" style="fill:none;stroke:rgb(231,74,30);stroke-width:1.54px;stroke-linecap:round;stroke-linejoin:round;"/>
    </g>
    <g transform="matrix(1.33333,0,0,1.33333,75.3554,60.9727)">
        <path d="M0,-8.685L-8.684,0L-13.07,-4.386L-16.684,-0.772" style="fill:none;fill-rule:nonzero;stroke:rgb(231,74,30);stroke-width:1.54px;stroke-linecap:round;stroke-linejoin:round;"/>
    </g>
    <g transform="matrix(1.33333,0,0,1.33333,75.3561,49.3923)">
        <path d="M0,5.012L0,0L-5.012,0" style="fill:none;fill-rule:nonzero;stroke:rgb(231,74,30);stroke-width:1.54px;stroke-linecap:round;stroke-linejoin:round;"/>
    </g>
</svg>
