<?xml version="1.0" encoding="UTF-8" standalone="no"?>
<!DOCTYPE svg PUBLIC "-//W3C//DTD SVG 1.1//EN" "http://www.w3.org/Graphics/SVG/1.1/DTD/svg11.dtd">
<svg width="100%" height="100%" viewBox="0 0 18 27" version="1.1" xmlns="http://www.w3.org/2000/svg" xmlns:xlink="http://www.w3.org/1999/xlink" xml:space="preserve" xmlns:serif="http://www.serif.com/" style="fill-rule:evenodd;clip-rule:evenodd;stroke-linejoin:round;stroke-miterlimit:2;">
    <g transform="matrix(1,0,0,1,16.637,15.199)">
        <path d="M0,-3.611C0.046,-3.736 0.09,-3.862 0.13,-3.99C0.136,-4.006 0.142,-4.021 0.147,-4.038C0.191,-4.179 0.232,-4.322 0.27,-4.466L0.27,-4.468C0.31,-4.625 0.345,-4.783 0.376,-4.942C0.386,-4.992 0.394,-5.042 0.403,-5.091C0.423,-5.205 0.441,-5.318 0.457,-5.433C0.465,-5.49 0.472,-5.547 0.479,-5.604C0.492,-5.718 0.503,-5.835 0.512,-5.951C0.516,-6.003 0.521,-6.054 0.523,-6.107C0.533,-6.274 0.54,-6.442 0.54,-6.611C0.54,-7.204 0.479,-7.783 0.365,-8.342C0.336,-8.482 0.305,-8.621 0.269,-8.757C0.128,-9.306 -0.066,-9.834 -0.307,-10.335C-0.609,-10.961 -0.984,-11.544 -1.421,-12.074C-2.997,-13.983 -5.38,-15.199 -8.048,-15.199C-9.036,-15.199 -9.983,-15.031 -10.866,-14.724C-10.963,-14.69 -11.06,-14.655 -11.155,-14.618C-11.832,-14.355 -12.466,-14.009 -13.047,-13.592C-13.143,-13.524 -13.237,-13.454 -13.33,-13.381C-13.607,-13.164 -13.873,-12.932 -14.121,-12.684C-14.801,-12.004 -15.368,-11.211 -15.79,-10.335C-16.031,-9.834 -16.225,-9.306 -16.366,-8.757C-16.401,-8.621 -16.434,-8.482 -16.462,-8.342C-16.577,-7.783 -16.637,-7.204 -16.637,-6.611C-16.637,-6.442 -16.63,-6.274 -16.621,-6.107C-16.618,-6.054 -16.613,-6.003 -16.609,-5.951C-16.6,-5.835 -16.589,-5.718 -16.576,-5.604C-16.569,-5.547 -16.562,-5.49 -16.554,-5.433C-16.539,-5.318 -16.52,-5.204 -16.5,-5.09C-16.491,-5.042 -16.483,-4.992 -16.473,-4.943C-16.432,-4.733 -16.382,-4.526 -16.326,-4.323C-16.303,-4.239 -16.28,-4.155 -16.255,-4.072C-16.22,-3.96 -16.182,-3.848 -16.142,-3.737C-16.137,-3.722 -16.132,-3.707 -16.127,-3.692C-15.986,-3.302 -15.817,-2.925 -15.624,-2.565C-15.624,-2.563 -15.623,-2.562 -15.622,-2.561C-15.553,-2.432 -15.481,-2.305 -15.406,-2.18L-8.048,11.588L-0.585,-2.364C-0.363,-2.755 -0.169,-3.164 -0.009,-3.59C-0.006,-3.596 -0.003,-3.604 0,-3.611" style="fill:rgb(189,22,34);fill-rule:nonzero;"/>
    </g>
</svg>
