<?xml version="1.0" encoding="UTF-8" standalone="no"?>
<!DOCTYPE svg PUBLIC "-//W3C//DTD SVG 1.1//EN" "http://www.w3.org/Graphics/SVG/1.1/DTD/svg11.dtd">
<svg width="100%" height="100%" viewBox="0 0 63 50" version="1.1" xmlns="http://www.w3.org/2000/svg" xmlns:xlink="http://www.w3.org/1999/xlink" xml:space="preserve" xmlns:serif="http://www.serif.com/" style="fill-rule:evenodd;clip-rule:evenodd;stroke-linejoin:round;stroke-miterlimit:2;">
    <g transform="matrix(0.953371,0,0,0.953371,32.9037,19.4555)">
        <path d="M0,10.462C0,7.886 0.396,5.39 1.189,2.972C1.982,0.555 3.24,-1.684 4.964,-3.745C6.688,-5.807 8.927,-7.659 11.682,-9.304C14.436,-10.948 17.794,-12.306 21.758,-13.376L21.758,-7.074C20.014,-6.44 18.468,-5.807 17.121,-5.172C15.773,-4.538 14.654,-3.854 13.762,-3.121C12.87,-2.388 12.197,-1.576 11.741,-0.684C11.285,0.208 11.057,1.248 11.057,2.437C11.057,3.23 11.275,3.863 11.711,4.339C12.147,4.815 12.702,5.271 13.375,5.706C14.049,6.143 14.763,6.588 15.516,7.044C16.269,7.5 16.982,8.074 17.656,8.768C18.33,9.462 18.884,10.344 19.32,11.413C19.756,12.483 19.974,13.831 19.974,15.456C19.974,18.191 19.132,20.271 17.448,21.697C15.763,23.124 13.673,23.838 11.176,23.838C7.728,23.838 5.003,22.649 3.002,20.271C1.001,17.893 0,14.623 0,10.462M-25.443,10.462C-25.443,7.886 -25.047,5.39 -24.254,2.972C-23.461,0.555 -22.203,-1.684 -20.479,-3.745C-18.755,-5.807 -16.516,-7.659 -13.762,-9.304C-11.007,-10.948 -7.648,-12.306 -3.686,-13.376L-3.686,-7.074C-5.469,-6.44 -7.024,-5.807 -8.352,-5.172C-9.68,-4.538 -10.79,-3.854 -11.681,-3.121C-12.573,-2.388 -13.247,-1.576 -13.702,-0.684C-14.158,0.208 -14.386,1.248 -14.386,2.437C-14.386,3.23 -14.168,3.863 -13.732,4.339C-13.296,4.815 -12.741,5.271 -12.067,5.706C-11.394,6.143 -10.681,6.588 -9.927,7.044C-9.174,7.5 -8.461,8.074 -7.788,8.768C-7.114,9.462 -6.559,10.344 -6.123,11.413C-5.687,12.483 -5.469,13.831 -5.469,15.456C-5.469,18.191 -6.311,20.271 -7.996,21.697C-9.68,23.124 -11.771,23.838 -14.267,23.838C-17.715,23.838 -20.439,22.649 -22.441,20.271C-24.442,17.893 -25.443,14.623 -25.443,10.462" style="fill:rgb(231,74,30);fill-rule:nonzero;"/>
    </g>
</svg>
