<?xml version="1.0" encoding="UTF-8" standalone="no"?>
<!DOCTYPE svg PUBLIC "-//W3C//DTD SVG 1.1//EN" "http://www.w3.org/Graphics/SVG/1.1/DTD/svg11.dtd">
<svg width="100%" height="100%" viewBox="0 0 82 98" version="1.1" xmlns="http://www.w3.org/2000/svg" xmlns:xlink="http://www.w3.org/1999/xlink" xml:space="preserve" xmlns:serif="http://www.serif.com/" style="fill-rule:evenodd;clip-rule:evenodd;stroke-miterlimit:10;">
    <g transform="matrix(1.33333,0,0,1.33333,15.3673,31.9189)">
        <path d="M0,7.195L18.047,7.195C19.103,7.195 19.966,6.332 19.966,5.276L19.966,1.919C19.966,0.863 19.103,0 18.047,0L0,0L-3.777,3.597L0,7.195Z" style="fill:none;fill-rule:nonzero;stroke:rgb(56,62,100);stroke-width:1.54px;"/>
    </g>
    <g transform="matrix(1.33333,0,0,1.33333,41.0294,87.0846)">
        <path d="M0,-57.565C-1.187,-57.565 -2.159,-56.593 -2.159,-55.407L-2.159,0L2.159,0L2.159,-55.407C2.159,-56.593 1.187,-57.565 0,-57.565" style="fill:white;fill-rule:nonzero;"/>
    </g>
    <g transform="matrix(1.33333,0,0,1.33333,41.0294,87.0846)">
        <path d="M0,-57.565C-1.187,-57.565 -2.159,-56.593 -2.159,-55.407L-2.159,0L2.159,0L2.159,-55.407C2.159,-56.593 1.187,-57.565 0,-57.565Z" style="fill:none;fill-rule:nonzero;stroke:rgb(56,62,100);stroke-width:1.54px;"/>
    </g>
    <g transform="matrix(1.33333,0,0,1.33333,62.769,27.6294)">
        <path d="M0,-9.376L-23.519,-9.376C-24.894,-9.376 -26.019,-8.251 -26.019,-6.876L-26.019,-2.5C-26.019,-1.125 -24.894,0 -23.519,0L0,0L4.922,-4.688L0,-9.376Z" style="fill:white;fill-rule:nonzero;stroke:rgb(231,74,30);stroke-width:1.54px;stroke-linecap:round;stroke-linejoin:round;"/>
    </g>
    <g transform="matrix(1.33333,0,0,1.33333,64.6877,58.3313)">
        <path d="M0,-9.376L-23.519,-9.376C-24.894,-9.376 -26.019,-8.251 -26.019,-6.876L-26.019,-2.5C-26.019,-1.125 -24.894,0 -23.519,0L0,0L4.923,-4.688L0,-9.376Z" style="fill:white;fill-rule:nonzero;stroke:rgb(56,62,100);stroke-width:1.54px;"/>
    </g>
</svg>
