<?xml version="1.0" standalone="no"?>
<!DOCTYPE svg PUBLIC "-//W3C//DTD SVG 20010904//EN"
 "http://www.w3.org/TR/2001/REC-SVG-20010904/DTD/svg10.dtd">
<svg version="1.0" xmlns="http://www.w3.org/2000/svg"
 width="1040.000000pt" height="1040.000000pt" viewBox="0 0 1040.000000 1040.000000"
 preserveAspectRatio="xMidYMid meet">
<metadata>
Created by potrace 1.11, written by Peter Selinger 2001-2013
</metadata>
<g transform="translate(0.000000,1040.000000) scale(0.100000,-0.100000)"
fill="#000000" stroke="none">
<path d="M5178 9785 c-2 -2 -48 -6 -103 -10 -137 -8 -236 -18 -310 -30 -16 -2
-46 -7 -65 -9 -80 -11 -114 -17 -134 -21 -12 -3 -32 -7 -46 -9 -64 -12 -227
-47 -240 -52 -8 -4 -22 -8 -30 -9 -20 -4 -47 -11 -130 -34 -85 -24 -315 -103
-327 -113 -7 -6 -13 -8 -13 -5 0 6 -29 -6 -210 -86 -63 -28 -117 -53 -120 -56
-3 -4 -32 -19 -65 -36 -69 -34 -147 -77 -190 -105 -16 -11 -37 -23 -45 -27 -8
-3 -17 -9 -20 -12 -3 -4 -49 -35 -103 -70 -54 -36 -113 -77 -130 -93 -18 -15
-35 -28 -39 -28 -4 0 -24 -16 -45 -35 -21 -19 -41 -35 -45 -35 -4 0 -23 -15
-42 -32 -19 -18 -65 -60 -102 -93 -89 -80 -184 -174 -269 -270 -38 -43 -80
-89 -93 -103 -12 -14 -48 -60 -80 -101 -31 -42 -59 -78 -62 -81 -14 -13 -131
-184 -175 -255 -27 -44 -53 -81 -57 -83 -5 -2 -8 -12 -8 -22 0 -10 -4 -20 -8
-22 -19 -8 -182 -326 -256 -501 -25 -59 -46 -109 -46 -111 0 -2 -8 -21 -17
-42 -9 -22 -17 -41 -18 -44 0 -3 -9 -30 -20 -60 -11 -30 -20 -57 -20 -60 -1
-3 -5 -12 -8 -20 -30 -72 -133 -445 -162 -585 -2 -11 -10 -51 -19 -90 -8 -38
-17 -90 -21 -115 -3 -25 -8 -52 -10 -60 -2 -8 -7 -35 -10 -60 -3 -25 -8 -52
-10 -60 -2 -8 -7 -43 -10 -77 -3 -34 -7 -70 -9 -80 -4 -21 -17 -141 -21 -198
-2 -22 -7 -80 -10 -130 -11 -144 -13 -609 -3 -622 5 -6 5 -13 1 -16 -5 -3 -8
-20 -7 -39 11 -184 18 -274 30 -393 4 -33 8 -80 9 -105 2 -25 4 -45 5 -45 2 0
4 -10 5 -22 3 -32 15 -115 19 -143 3 -14 7 -41 10 -60 3 -19 7 -44 9 -55 3
-11 7 -36 10 -55 15 -84 17 -96 22 -120 3 -14 8 -36 11 -50 3 -14 7 -33 10
-42 3 -10 8 -30 10 -45 3 -16 19 -77 35 -138 17 -60 32 -119 34 -130 7 -30 56
-187 67 -210 5 -12 10 -27 12 -35 2 -8 6 -24 11 -35 4 -11 20 -54 35 -95 28
-74 78 -196 105 -255 8 -17 18 -41 24 -55 6 -14 15 -32 20 -40 6 -8 21 -37 34
-65 63 -132 175 -324 266 -455 58 -84 146 -204 163 -221 7 -8 25 -31 41 -51
86 -115 341 -370 493 -492 33 -26 66 -53 74 -59 85 -69 335 -231 450 -293 30
-16 58 -33 61 -37 3 -5 8 -8 10 -8 13 2 49 -13 49 -20 0 -5 3 -9 8 -8 14 2 52
-13 52 -21 0 -4 11 -11 25 -14 14 -4 53 -19 87 -35 69 -32 215 -90 293 -115
28 -9 57 -19 65 -23 18 -8 17 -7 60 -17 19 -5 40 -11 45 -14 6 -4 15 -7 20 -8
6 -1 37 -9 70 -19 33 -9 78 -21 100 -26 22 -5 49 -11 60 -14 21 -5 51 -12 88
-20 12 -3 49 -10 82 -16 33 -6 71 -13 85 -16 14 -3 42 -6 62 -7 21 0 38 -5 38
-10 0 -4 6 -6 14 -3 8 3 17 3 20 0 3 -3 22 -7 43 -8 21 -2 61 -5 88 -9 28 -4
77 -9 110 -12 33 -2 92 -7 130 -11 110 -9 648 -9 775 1 63 5 140 10 170 12 30
2 55 4 55 4 0 3 40 9 90 15 28 2 64 7 80 10 17 2 46 6 65 9 62 9 103 17 225
43 66 14 125 26 130 28 35 8 79 20 140 37 39 11 75 21 80 23 6 1 17 4 25 8 8
3 53 17 100 32 47 15 97 34 113 41 15 8 27 12 27 10 0 -5 73 25 190 76 93 41
305 151 312 162 4 6 8 7 8 2 0 -5 7 -2 16 5 17 14 49 33 74 45 34 16 235 156
286 199 7 6 27 21 46 35 106 80 303 268 408 390 30 35 62 71 71 80 9 10 39 48
67 86 29 38 56 74 60 79 45 55 242 376 242 395 0 4 7 13 15 20 8 7 15 18 15
26 0 7 13 36 30 64 16 27 27 50 25 50 -3 0 5 19 17 42 12 24 23 45 23 48 3 9
25 65 35 85 17 36 60 148 60 156 0 4 5 20 12 36 6 15 12 33 14 38 2 6 17 55
34 110 17 55 34 111 37 125 7 36 9 43 17 60 3 8 12 47 20 85 7 39 15 77 17 85
4 13 -109 15 -966 15 l-969 0 -37 -100 c-20 -55 -42 -113 -49 -130 -7 -16 -14
-35 -15 -41 -5 -23 -133 -273 -146 -284 -3 -3 -16 -23 -29 -45 -63 -106 -233
-299 -341 -388 -56 -46 -204 -142 -266 -173 -32 -16 -61 -33 -64 -37 -3 -5
-10 -9 -15 -9 -13 -1 -32 -7 -84 -28 -89 -36 -274 -88 -340 -96 -19 -2 -48 -7
-65 -11 -16 -3 -43 -7 -60 -9 -16 -1 -68 -5 -115 -9 -108 -10 -324 -10 -415
-1 -38 5 -90 10 -115 12 -44 4 -85 11 -85 14 0 1 -9 3 -20 4 -59 8 -183 37
-225 53 -8 3 -24 8 -34 10 -55 10 -268 104 -371 163 -56 32 -188 121 -200 135
-5 6 -30 27 -55 46 -38 29 -196 184 -238 234 -37 43 -152 201 -163 224 -8 14
-21 34 -29 43 -8 10 -31 48 -50 85 -19 37 -38 70 -43 71 -4 2 -5 7 -2 12 3 4
-2 13 -10 20 -8 7 -15 17 -15 23 0 6 -13 38 -29 71 -43 91 -71 155 -71 165 0
5 -7 22 -15 37 -8 16 -15 36 -15 44 0 9 -5 21 -12 28 -7 7 -9 12 -6 12 4 0 -4
28 -18 62 -13 34 -24 67 -24 74 0 7 -5 25 -11 41 -7 15 -13 35 -14 43 -2 8
-17 71 -33 140 -17 69 -33 139 -36 155 -12 61 -17 91 -26 145 -19 113 -22 136
-25 165 -2 17 -6 50 -10 75 -3 25 -8 65 -10 90 -2 25 -5 45 -5 45 -1 0 -5 57
-15 235 -8 152 -5 700 5 700 3 0 5 26 6 58 1 31 4 86 8 122 4 36 8 81 10 100
5 57 16 143 22 173 3 16 7 38 9 50 4 26 15 91 21 121 2 11 7 37 10 56 5 29 39
177 59 253 3 9 7 25 9 35 14 54 58 189 89 272 57 155 62 165 72 172 6 4 7 8 3
8 -7 0 102 218 148 295 13 22 27 47 31 55 4 8 12 21 19 27 7 7 22 29 35 50 13
21 25 40 28 43 4 3 25 30 48 61 24 30 65 80 92 110 28 30 50 57 51 62 0 4 4 7
9 7 4 0 30 21 57 48 27 26 69 63 93 82 23 19 48 40 55 45 26 22 138 95 146 95
5 0 10 4 12 8 2 5 59 36 128 69 116 56 143 68 162 72 5 1 25 8 45 16 52 19
215 64 255 69 18 3 33 5 33 6 0 3 85 15 195 26 162 18 522 6 660 -21 19 -4 46
-8 60 -10 14 -2 48 -9 75 -15 28 -6 58 -13 68 -15 20 -4 77 -22 122 -39 17 -6
35 -11 42 -12 22 -4 189 -78 236 -106 26 -15 52 -28 57 -28 6 0 10 -4 10 -10
0 -5 5 -10 11 -10 12 0 103 -60 107 -72 2 -4 10 -8 17 -8 8 0 18 -6 22 -12 4
-7 33 -33 63 -58 74 -61 196 -190 227 -242 10 -16 21 -28 25 -28 4 0 8 -4 8
-9 0 -4 21 -39 46 -77 63 -96 176 -329 203 -419 7 -22 16 -49 21 -60 5 -11 15
-42 23 -70 l14 -50 966 -1 965 0 -4 20 c-2 12 -7 37 -10 56 -3 19 -8 46 -10
60 -3 14 -7 34 -9 45 -2 11 -8 40 -14 65 -7 25 -13 54 -15 65 -2 11 -9 40 -15
65 -6 25 -14 54 -16 66 -3 12 -11 40 -19 63 -9 22 -13 41 -9 41 3 0 1 6 -4 13
-6 6 -23 50 -38 97 -15 47 -33 91 -39 99 -6 8 -10 15 -8 15 6 2 -14 53 -59
151 -13 28 -22 53 -21 58 1 4 -3 7 -8 7 -5 0 -9 3 -8 8 2 6 -33 78 -82 169
-84 157 -267 417 -390 554 -92 104 -302 309 -315 309 -2 0 -15 10 -27 23 -13
12 -39 33 -57 47 -19 14 -39 30 -45 35 -6 6 -47 35 -91 65 -44 30 -82 58 -85
61 -22 26 -405 235 -506 276 -16 6 -60 24 -99 40 -38 15 -73 32 -77 38 -4 5
-8 7 -8 3 0 -6 -58 11 -130 39 -8 4 -17 7 -20 8 -3 0 -43 13 -90 27 -98 31
-236 68 -265 72 -11 2 -29 6 -40 9 -21 7 -63 15 -105 22 -14 2 -45 8 -70 13
-25 5 -52 10 -60 10 -8 1 -31 4 -50 8 -19 4 -45 7 -57 8 -13 0 -23 2 -23 6 0
3 -21 6 -48 7 -26 2 -67 6 -92 9 -25 4 -63 8 -85 9 -22 2 -74 7 -115 10 -76 7
-686 15 -692 10z"/>
</g>
</svg>
