<?xml version="1.0" encoding="UTF-8" standalone="no"?>
<!DOCTYPE svg PUBLIC "-//W3C//DTD SVG 1.1//EN" "http://www.w3.org/Graphics/SVG/1.1/DTD/svg11.dtd">
<svg width="100%" height="100%" viewBox="0 0 222 54" version="1.1" xmlns="http://www.w3.org/2000/svg" xmlns:xlink="http://www.w3.org/1999/xlink" xml:space="preserve" xmlns:serif="http://www.serif.com/" style="fill-rule:evenodd;clip-rule:evenodd;stroke-linejoin:round;stroke-miterlimit:2;">
    <g transform="matrix(1,0,0,1,34.464,15.0668)">
        <path d="M0,14.643C-1.504,21.825 -6.904,27.059 -16.536,27.059C-28.729,27.059 -34.464,18.429 -34.464,7.517C-34.464,-3.006 -28.506,-12.416 -16.147,-12.416C-5.902,-12.416 -0.947,-6.459 0,0L-8.296,0C-9.132,-3.006 -11.191,-5.958 -16.425,-5.958C-23.273,-5.958 -25.89,0.223 -25.89,7.238C-25.89,13.696 -23.607,20.544 -16.202,20.544C-10.746,20.544 -9.076,16.926 -8.352,14.643L0,14.643Z" style="fill:#ffffff;fill-rule:nonzero;"/>
    </g>
    <g transform="matrix(1,0,0,1,43.8688,27.1488)">
        <path d="M0,0C0,5.567 2.395,8.853 6.236,8.853C10.188,8.853 12.361,5.567 12.361,0.055C12.361,-5.958 10.133,-8.797 6.125,-8.797C2.45,-8.797 0,-6.069 0,0M20.433,-0.057C20.433,8.686 15.2,15.088 6.069,15.088C-2.839,15.088 -8.073,8.686 -8.073,0.111C-8.073,-8.797 -2.672,-15.088 6.458,-15.088C14.922,-15.088 20.433,-9.076 20.433,-0.057" style="fill:#ffffff;fill-rule:nonzero;"/>
    </g>
    <g transform="matrix(1,0,0,1,80.3327,30.4347)">
        <path d="M0,4.341C4.789,4.341 6.069,1.056 6.069,-3.788C6.069,-8.632 5.234,-11.971 0.167,-11.971C-3.285,-11.971 -6.013,-9.299 -6.013,-3.509C-6.013,1.446 -3.507,4.341 0,4.341M13.641,7.626C13.641,16.868 10.245,22.715 -0.667,22.715C-11.19,22.715 -13.251,16.868 -13.529,13.584L-5.4,13.584C-4.844,15.588 -3.396,16.925 -0.333,16.925C4.844,16.925 5.846,13.75 5.846,8.128L5.846,6.736C4.344,9.241 1.949,10.8 -2.283,10.8C-9.854,10.8 -14.197,4.564 -14.197,-3.175C-14.197,-12.195 -8.796,-18.374 -1.614,-18.374C3.341,-18.374 5.401,-16.036 5.846,-14.7C5.902,-15.48 6.125,-17.205 6.181,-17.706L13.696,-17.706C13.696,-15.09 13.641,-12.195 13.641,-9.41L13.641,7.626Z" style="fill:#ffffff;fill-rule:nonzero;"/>
    </g>
    <g transform="matrix(1,0,0,1,115.963,30.3224)">
        <path d="M0,-6.347C-0.056,-9.688 -1.392,-12.528 -5.289,-12.528C-9.076,-12.528 -10.635,-9.91 -10.968,-6.347L0,-6.347ZM-11.135,-1.448C-11.135,2.171 -9.299,5.679 -5.346,5.679C-2.004,5.679 -1.059,4.343 -0.278,2.616L7.684,2.616C6.681,6.124 3.507,11.915 -5.512,11.915C-15.033,11.915 -19.153,4.843 -19.153,-2.728C-19.153,-11.804 -14.532,-18.262 -5.234,-18.262C4.621,-18.262 8.017,-11.08 8.017,-3.897C8.017,-2.895 8.017,-2.283 7.905,-1.448L-11.135,-1.448Z" style="fill:#ffffff;fill-rule:nonzero;"/>
    </g>
    <g transform="matrix(1,0,0,1,126.815,33.6063)">
        <path d="M0,-13.584C0,-16.034 0,-18.707 -0.055,-20.877L7.684,-20.877C7.851,-20.099 7.962,-18.094 8.019,-17.204C8.964,-18.985 11.303,-21.546 16.369,-21.546C22.16,-21.546 25.89,-17.593 25.89,-10.355L25.89,7.962L17.928,7.962L17.928,-9.464C17.928,-12.749 16.871,-15.088 13.308,-15.088C9.911,-15.088 8.019,-13.194 8.019,-8.073L8.019,7.962L0,7.962L0,-13.584Z" style="fill:#ffffff;fill-rule:nonzero;"/>
    </g>
    <g transform="matrix(1,0,0,1,154.761,34.1638)">
        <path d="M0,-21.435L4.455,-21.435L4.455,-29.23L12.417,-29.23L12.417,-21.435L18.095,-21.435L18.095,-15.422L12.417,-15.422L12.417,-1.169C12.417,1.002 13.084,1.837 15.479,1.837C15.924,1.837 16.704,1.837 17.261,1.782L17.261,7.238C15.702,7.795 13.53,7.795 11.916,7.795C6.292,7.795 4.455,4.789 4.455,-0.279L4.455,-15.422L0,-15.422L0,-21.435Z" style="fill:#ffffff;fill-rule:nonzero;"/>
    </g>
    <g transform="matrix(1,0,0,1,-20.2093,-1714.42)">
        <path d="M196.906,1727.15L204.923,1727.15L204.923,1755.99L196.906,1755.99L196.906,1727.15ZM196.906,1715.35L204.923,1715.35L204.923,1722.47L196.906,1722.47L196.906,1715.35Z" style="fill:#ffffff;fill-rule:nonzero;"/>
    </g>
    <g transform="matrix(1,0,0,1,206.37,25.868)">
        <path d="M0,2.561L-3.229,2.561C-8.072,2.561 -9.854,4.064 -9.854,6.848C-9.854,8.908 -8.574,10.69 -5.679,10.69C-0.612,10.69 0,7.126 0,3.34L0,2.561ZM7.795,8.24C7.795,11.023 8.018,15.032 8.185,15.701L0.557,15.701C0.335,15.144 0.167,13.585 0.167,12.861C-0.891,14.476 -2.84,16.369 -7.962,16.369C-14.92,16.369 -17.816,11.804 -17.816,7.349C-17.816,0.779 -12.583,-2.283 -4.12,-2.283L0,-2.283L0,-4.008C0,-6.069 -0.724,-8.073 -4.454,-8.073C-7.794,-8.073 -8.574,-6.681 -8.908,-4.565L-16.479,-4.565C-16.091,-9.688 -12.917,-13.808 -4.12,-13.808C3.563,-13.752 7.795,-10.746 7.795,-3.842L7.795,8.24Z" style="fill:#ffffff;fill-rule:nonzero;"/>
    </g>
    <g transform="matrix(1,0,0,1,217.384,3.728)">
        <path d="M0,-0.55L0.57,-0.55C0.896,-0.55 1.121,-0.652 1.121,-1.019C1.121,-1.304 0.978,-1.466 0.57,-1.466L0,-1.466L0,-0.55ZM-0.815,1.366L-0.815,-2.037L0.631,-2.037C1.365,-2.037 1.976,-1.772 1.976,-1.059C1.976,-0.631 1.649,-0.346 1.405,-0.265C1.669,-0.162 1.874,0.082 1.874,0.632C1.874,0.816 1.874,1.12 1.915,1.366L1.121,1.366C1.059,1.182 1.039,0.816 1.039,0.652C1.039,0.224 0.937,0.041 0.488,0.041L0,0.041L0,1.366L-0.815,1.366ZM-2.059,-0.285C-2.059,1.243 -0.958,2.465 0.529,2.465C2.2,2.465 3.076,1.304 3.076,-0.265C3.076,-1.813 2.057,-3.035 0.529,-3.035C-1.182,-3.035 -2.059,-1.712 -2.059,-0.285M3.85,-0.285C3.85,1.651 2.526,3.178 0.529,3.178C-1.366,3.178 -2.812,1.691 -2.812,-0.285C-2.812,-2.2 -1.426,-3.728 0.529,-3.728C2.526,-3.728 3.85,-2.139 3.85,-0.285" style="fill:#ffffff;fill-rule:nonzero;"/>
    </g>
</svg>
