<?xml version="1.0" encoding="UTF-8" standalone="no"?>
<!DOCTYPE svg PUBLIC "-//W3C//DTD SVG 1.1//EN" "http://www.w3.org/Graphics/SVG/1.1/DTD/svg11.dtd">
<svg width="100%" height="100%" viewBox="0 0 1600 411" version="1.1" xmlns="http://www.w3.org/2000/svg" xmlns:xlink="http://www.w3.org/1999/xlink" xml:space="preserve" xmlns:serif="http://www.serif.com/" style="fill-rule:evenodd;clip-rule:evenodd;stroke-linejoin:round;stroke-miterlimit:2;">
    <g id="_2" serif:id="2">
        <g>
            <g transform="matrix(1.33333,0,0,1.33333,366.78,322.776)">
                <path d="M0,-130.594C0,-130.594 0.286,-129.838 0.793,-129.486L-1.508,-129.486C-0.892,-129.908 0,-130.594 0,-130.594M3.334,-130.925L3.334,-129.486L1.847,-129.486C1.865,-129.498 1.882,-129.504 1.9,-129.517C3.084,-130.344 1.864,-131.421 1.864,-131.421C1.864,-131.421 2.669,-131.097 3.334,-130.925M4.302,-136.126C4.409,-136.214 4.439,-136.295 4.444,-136.376L4.804,-136.376L4.804,-135.226L5.174,-135.226C4.985,-135.052 4.819,-134.858 4.676,-134.646C4.093,-135.375 3.299,-135.299 3.299,-135.299C3.299,-135.299 3.693,-135.622 4.302,-136.126M7.37,-138.974C7.412,-138.97 7.451,-138.961 7.493,-138.961C7.535,-138.961 7.574,-138.97 7.615,-138.974L7.63,-137.345L7.355,-137.345L7.37,-138.974ZM10.683,-136.126C11.292,-135.622 11.687,-135.299 11.687,-135.299C11.687,-135.299 10.894,-135.375 10.31,-134.646C10.167,-134.858 10.001,-135.052 9.812,-135.226L10.181,-135.226L10.181,-136.376L10.542,-136.376C10.545,-136.295 10.576,-136.214 10.683,-136.126M13.121,-131.421C13.121,-131.421 11.902,-130.344 13.084,-129.517C13.103,-129.504 13.12,-129.498 13.138,-129.486L11.651,-129.486L11.651,-130.925C12.315,-131.097 13.121,-131.421 13.121,-131.421M14.985,-130.594C14.985,-130.594 15.877,-129.908 16.493,-129.486L14.191,-129.486C14.699,-129.838 14.985,-130.594 14.985,-130.594M7.134,-136.376L7.134,-136.555L7.852,-136.555L7.852,-136.376L7.923,-136.376L7.923,-136.084C7.781,-136.102 7.64,-136.126 7.493,-136.126C7.346,-136.126 7.205,-136.102 7.062,-136.084L7.062,-136.376L7.134,-136.376ZM147.959,-64.901L83.069,-64.901L83.069,-69.435L75.177,-69.435L75.177,-64.901L70.092,-64.901L70.092,-69.435L64.62,-69.435L64.62,-88.277L64.312,-88.277L64.312,-90.82L65.259,-91.469L65.259,-92.159L65.867,-92.159L65.867,-92.89L66.394,-92.89L66.394,-93.418L62.991,-93.418L62.991,-97.12L63.499,-97.12L63.499,-98.666L62.442,-98.666L62.442,-99.783C63.055,-100.112 63.477,-100.751 63.477,-101.493C63.477,-102.421 62.822,-103.199 61.95,-103.393L61.793,-104.631L61.529,-106.721L61.266,-104.631L61.109,-103.393C60.238,-103.199 59.581,-102.422 59.581,-101.493C59.581,-100.751 60.003,-100.113 60.615,-99.783L60.615,-98.666L59.559,-98.666L59.559,-97.12L60.066,-97.12L60.066,-93.418L56.378,-93.418C53.558,-94.151 52.593,-98.18 49.934,-99.066C48.608,-99.509 46.353,-99.607 44.561,-97.912C47.862,-95.846 45.159,-90.08 40.264,-92.9C35.187,-96.391 38.488,-101.19 41.994,-100.869C41.887,-101.868 41.051,-102.492 39.149,-102.569L31.571,-102.569C33.126,-104.226 32.342,-107.209 31.337,-108.022C30.168,-108.967 29.188,-108.421 28.874,-107.757C30.334,-108.109 29.5,-105.722 27.997,-107.187C27.51,-107.662 27.096,-107.844 26.808,-107.91L26.808,-116.825C27.394,-117.052 27.813,-117.617 27.813,-118.281C27.813,-118.946 27.394,-119.511 26.808,-119.737L26.808,-121.602L27.132,-121.602L27.132,-122.32L25.795,-122.32L25.795,-125.342L26.286,-125.342L26.286,-125.838L27.099,-126.255L27.099,-126.712L27.686,-126.712L27.686,-127.92L28.175,-127.92L28.175,-128.703L25.259,-128.703L24.232,-129.486L23.972,-129.486L23.972,-131.967L24.379,-131.967L24.379,-133.207L23.531,-133.207L23.531,-134.103C24.022,-134.367 24.361,-134.881 24.361,-135.475C24.361,-136.22 23.835,-136.844 23.135,-136.999L23.01,-137.993L22.798,-139.671L22.586,-137.993L22.461,-136.999C21.762,-136.844 21.236,-136.22 21.236,-135.475C21.236,-134.881 21.575,-134.367 22.065,-134.103L22.065,-133.207L21.218,-133.207L21.218,-131.967L21.625,-131.967L21.625,-129.486L20.543,-129.486C20.858,-129.685 21.06,-129.961 21.042,-130.344C20.971,-131.959 20.29,-131.78 19.789,-131.563C19.287,-131.348 19.394,-130.414 19.394,-130.414C19.394,-130.414 18.713,-130.846 17.817,-130.882C16.921,-130.917 17.063,-131.529 17.063,-131.529C17.063,-131.529 18.355,-131.887 17.709,-132.533C17.063,-133.18 17.064,-132.067 16.526,-132.533C15.988,-133.001 15.809,-133.719 15.2,-133.755C14.59,-133.791 15.056,-134.186 14.482,-134.293C13.909,-134.402 14.662,-135.657 13.767,-136.448C12.869,-137.238 12.439,-137.561 12.439,-138.926C12.439,-140.291 11.329,-140.398 11.329,-140.398C11.329,-140.398 11.148,-139.644 11.508,-139.249C11.866,-138.854 10.611,-138.602 11.041,-137.777C11.258,-137.361 11.012,-137.073 10.791,-136.825L10.791,-136.879L10.023,-136.879C10.028,-136.903 10.038,-136.925 10.038,-136.95L10.038,-136.951C10.038,-137.168 9.861,-137.345 9.644,-137.345L8.453,-137.345C8.475,-137.531 8.641,-137.865 9.5,-138.136C10.755,-138.531 11.077,-140.65 10.181,-141.008C9.648,-141.222 9.271,-140.978 9.049,-140.745C8.962,-141.411 8.465,-141.95 7.817,-142.088L7.817,-150.824L9.729,-151.909L9.729,-152.488L7.817,-152.488L7.817,-152.739L9.729,-153.824L9.729,-154.403L7.932,-154.403C8.123,-154.612 8.25,-154.91 8.25,-155.252C8.25,-155.85 7.876,-156.331 7.411,-156.374C7.412,-156.392 7.421,-156.407 7.421,-156.426C7.421,-156.764 7.161,-157.04 6.843,-157.04C6.525,-157.04 6.266,-156.764 6.266,-156.426C6.266,-156.176 6.408,-155.963 6.61,-155.867C6.515,-155.687 6.446,-155.483 6.446,-155.252C6.446,-154.706 6.761,-154.268 7.168,-154.159L7.168,-153.594L5.112,-152.018L7.168,-152.874L7.168,-142.088C6.52,-141.951 6.023,-141.412 5.936,-140.746C5.714,-140.978 5.337,-141.221 4.804,-141.008C3.909,-140.65 4.23,-138.531 5.485,-138.136C6.345,-137.865 6.511,-137.531 6.532,-137.345L5.342,-137.345C5.125,-137.345 4.947,-137.168 4.947,-136.951L4.947,-136.95C4.947,-136.925 4.957,-136.903 4.962,-136.879L4.195,-136.879L4.195,-136.824C3.974,-137.072 3.728,-137.361 3.944,-137.777C4.374,-138.602 3.119,-138.854 3.478,-139.249C3.836,-139.644 3.658,-140.398 3.658,-140.398C3.658,-140.398 2.545,-140.291 2.545,-138.926C2.545,-137.561 2.115,-137.238 1.219,-136.448C0.323,-135.657 1.076,-134.402 0.502,-134.293C-0.071,-134.186 0.395,-133.791 -0.214,-133.755C-0.824,-133.719 -1.004,-133.001 -1.541,-132.533C-2.079,-132.067 -2.079,-133.18 -2.725,-132.533C-3.37,-131.887 -2.079,-131.529 -2.079,-131.529C-2.079,-131.529 -1.935,-130.917 -2.832,-130.882C-3.728,-130.846 -4.409,-130.414 -4.409,-130.414C-4.409,-130.414 -4.302,-131.348 -4.803,-131.563C-5.305,-131.78 -5.986,-131.959 -6.058,-130.344C-6.075,-129.961 -5.874,-129.685 -5.558,-129.486L-6.64,-129.486L-6.64,-131.967L-6.232,-131.967L-6.232,-133.207L-7.08,-133.207L-7.08,-134.103C-6.589,-134.367 -6.25,-134.881 -6.25,-135.475C-6.25,-136.22 -6.776,-136.844 -7.476,-136.999L-7.602,-137.993L-7.812,-139.671L-8.024,-137.993L-8.15,-136.999C-8.85,-136.844 -9.376,-136.22 -9.376,-135.475C-9.376,-134.881 -9.037,-134.368 -8.546,-134.104L-8.546,-133.207L-9.393,-133.207L-9.393,-131.967L-8.985,-131.967L-8.985,-129.486L-9.247,-129.486L-10.274,-128.703L-13.189,-128.703L-13.189,-127.92L-12.7,-127.92L-12.7,-126.712L-12.114,-126.712L-12.114,-126.255L-11.3,-125.837L-11.3,-125.342L-10.811,-125.342L-10.811,-122.32L-12.147,-122.32L-12.147,-121.602L-11.821,-121.602L-11.821,-119.737C-12.408,-119.511 -12.828,-118.946 -12.828,-118.281C-12.828,-117.617 -12.408,-117.051 -11.821,-116.825L-11.821,-107.91C-12.11,-107.844 -12.524,-107.663 -13.012,-107.187C-14.515,-105.722 -15.349,-108.109 -13.889,-107.757C-14.202,-108.421 -15.184,-108.967 -16.352,-108.022C-17.357,-107.209 -18.142,-104.226 -16.586,-102.569L-24.163,-102.569C-26.064,-102.492 -26.901,-101.868 -27.008,-100.869C-23.503,-101.19 -20.201,-96.391 -25.278,-92.9C-30.174,-90.08 -32.878,-95.846 -29.576,-97.912C-31.368,-99.607 -33.623,-99.509 -34.949,-99.066C-37.607,-98.18 -38.572,-94.151 -41.394,-93.418L-45.082,-93.418L-45.082,-97.12L-44.574,-97.12L-44.574,-98.666L-45.63,-98.666L-45.63,-99.783C-45.018,-100.112 -44.596,-100.751 -44.596,-101.493C-44.596,-102.422 -45.252,-103.2 -46.125,-103.393L-46.28,-104.631L-46.544,-106.721L-46.808,-104.631L-46.964,-103.393C-47.835,-103.199 -48.492,-102.422 -48.492,-101.493C-48.492,-100.751 -48.07,-100.113 -47.458,-99.783L-47.458,-98.666L-48.514,-98.666L-48.514,-97.12L-48.005,-97.12L-48.005,-93.418L-51.409,-93.418L-51.409,-92.89L-50.882,-92.89L-50.882,-92.159L-50.274,-92.159L-50.274,-91.469L-49.326,-90.819L-49.326,-88.277L-49.559,-88.277L-49.559,-84.402L-50.5,-83.819L-50.5,-83.531L-51.077,-83.531L-51.077,-83.169L-50.68,-83.169L-50.68,-82.374L-49.559,-81.492L-49.559,-69.435L-55.029,-69.435L-55.029,-64.901L-60.115,-64.901L-60.115,-69.435L-68.007,-69.435L-68.007,-64.901L-73.093,-64.901L-73.093,-69.435L-80.985,-69.435L-80.985,-64.901L-86.07,-64.901L-86.07,-69.435L-93.963,-69.435L-93.963,-64.901L-132.897,-64.901L-132.897,25.652L-49.559,25.652L-49.559,26.446L64.62,26.446L64.62,25.652L147.959,25.652L147.959,-64.901Z" style="fill:rgb(35,112,133);"/>
            </g>
            <g transform="matrix(1.33333,0,0,1.33333,1221.43,352.974)">
                <path d="M0,-41.381L0.043,-41.422L-8.564,-49.501L-17.176,-41.422L-17.133,-41.381L-30.637,-41.381L-30.637,8.12L20.907,8.12L20.907,-41.381L0,-41.381Z" style="fill:rgb(35,112,133);"/>
            </g>
            <g transform="matrix(1.33333,0,0,1.33333,1572.39,328.018)">
                <path d="M0,-45.457L0.694,-46.151L-24.348,-71.197L-24.635,-74.812L-24.784,-76.648L-25.271,-76.648L-25.416,-74.812L-25.714,-71.067L-26.313,-70.374L-39.865,-66.379L-39.865,-67.148L-44.412,-67.148L-44.412,-69.16L-43.693,-69.16L-43.693,-72.343L-44.412,-72.343L-44.412,-74.093L-49.882,-74.093L-49.882,-72.343L-50.605,-72.343L-50.605,-69.16L-49.882,-69.16L-49.882,-63.426L-59.374,-60.627L-60.44,-61.695L-70.36,-51.774L-73.228,-51.774L-73.228,-60.696L-72.504,-60.696L-72.504,-63.879L-73.228,-63.879L-73.228,-65.629L-78.696,-65.629L-78.696,-63.879L-79.42,-63.879L-79.42,-60.696L-78.696,-60.696L-78.696,-48.584L-110.372,-48.584L-110.372,-49.758L-109.648,-49.758L-109.648,-52.94L-110.372,-52.94L-110.372,-54.69L-115.842,-54.69L-115.842,-52.94L-116.565,-52.94L-116.565,-49.758L-115.842,-49.758L-115.842,-48.584L-128.803,-48.584L-136.075,-57.904L-136.359,-61.436L-136.504,-63.272L-136.991,-63.272L-137.137,-61.436L-137.388,-58.281L-159.562,-41.758L-169.854,-41.758L-169.854,-67.584L-170.399,-67.584L-170.399,-68.496L-174.079,-68.496L-174.079,-67.584L-174.62,-67.584L-174.62,31.158L-56.736,31.158L-56.736,31.191L-43.569,31.191L-43.569,31.158L-0.876,31.158L-0.876,-44.063L0,-44.063L0,-45.457Z" style="fill:rgb(35,112,133);"/>
            </g>
            <g transform="matrix(1.33333,0,0,1.33333,886.089,327.174)">
                <path d="M0,-35.247C0.189,-35.104 0.453,-34.887 0.666,-34.632C1.025,-34.201 1.514,-34.848 1.514,-34.848L1.616,-34.254C1.616,-34.254 1.514,-33.957 0.794,-33.606C0.525,-33.476 0.415,-33.307 0.382,-33.147L0,-33.147L0,-35.247ZM98.441,-34.848C98.441,-34.848 98.93,-34.201 99.289,-34.632C99.502,-34.887 99.766,-35.103 99.955,-35.247L99.955,-33.147L99.574,-33.147C99.54,-33.307 99.43,-33.476 99.161,-33.606C98.441,-33.957 98.338,-34.254 98.338,-34.254L98.441,-34.848ZM146.137,-34.827L142.656,-34.827L142.656,-37.162L140.659,-37.162L140.659,-42.645L141.502,-42.645L141.502,-43.169L141.907,-43.169L141.907,-43.581L133.921,-43.581L133.921,-60.142C135.942,-60.315 135.687,-57.398 137.228,-57.24L138.129,-60.058C136.572,-59.993 136.645,-62.559 133.921,-63.021L133.921,-63.206L133.61,-63.206L133.61,-43.581L125.893,-43.581L125.893,-43.169L126.297,-43.169L126.297,-42.645L127.145,-42.645L127.145,-37.162L125.144,-37.162L125.144,-34.827L121.663,-34.827L121.663,-34.416L122.502,-34.416L122.502,-34.005L125.144,-32.706L125.144,-31.993L100.553,-31.993L100.467,-32.03L100.467,-32.851L100.724,-32.851L100.724,-33.147L100.24,-33.147L100.24,-35.484C100.372,-35.657 100.691,-36.122 100.314,-36.143C99.852,-36.17 99.777,-35.63 99.777,-35.63L99.058,-35.119C99.058,-35.119 98.954,-35.711 98.752,-35.9C98.545,-36.089 98.545,-36.36 98.545,-36.36C98.545,-36.36 98.983,-36.278 99.033,-36.522C99.082,-36.764 99.314,-37.007 98.826,-37.276C98.338,-37.547 97.569,-37.358 97.545,-37.06C97.52,-36.764 97.313,-36.602 97.313,-36.602L95.824,-38.329C95.824,-38.329 95.263,-37.276 95.75,-36.549C96.238,-35.819 96.879,-35.226 96.879,-35.226C96.879,-35.226 96.494,-34.874 96.568,-34.686C96.647,-34.497 96.238,-34.713 96.135,-34.092C96.123,-34.024 96.124,-33.964 96.117,-33.899L85.461,-38.48L85.461,-51.115L88.499,-52.608L88.499,-53.019L89.334,-53.019L89.334,-53.43L85.832,-53.43L85.832,-54.915L67.291,-54.915L67.291,-57.186L68.139,-57.186L68.139,-57.711L68.539,-57.711L68.539,-58.122L31.415,-58.122L31.415,-57.711L31.82,-57.711L31.82,-57.186L32.664,-57.186L32.664,-54.915L14.122,-54.915L14.122,-53.43L10.621,-53.43L10.621,-53.019L11.456,-53.019L11.456,-52.608L14.498,-51.113L14.498,-37.87L3.847,-33.292C3.865,-33.503 3.871,-33.787 3.82,-34.092C3.721,-34.713 3.308,-34.497 3.386,-34.686C3.465,-34.874 3.08,-35.226 3.08,-35.226C3.08,-35.226 3.721,-35.819 4.209,-36.549C4.692,-37.276 4.13,-38.329 4.13,-38.329L2.642,-36.602C2.642,-36.602 2.436,-36.764 2.41,-37.06C2.386,-37.358 1.616,-37.547 1.129,-37.276C0.641,-37.007 0.873,-36.764 0.922,-36.522C0.976,-36.278 1.41,-36.36 1.41,-36.36C1.41,-36.36 1.41,-36.089 1.207,-35.9C1.001,-35.711 0.897,-35.119 0.897,-35.119L0.178,-35.63C0.178,-35.63 0.104,-36.17 -0.359,-36.143C-0.74,-36.122 -0.411,-35.647 -0.281,-35.478L-0.281,-33.147L-0.769,-33.147L-0.769,-32.851L-0.513,-32.851L-0.513,-31.993L-25.188,-31.993L-25.188,-32.706L-22.543,-34.005L-22.543,-34.416L-21.708,-34.416L-21.708,-34.827L-25.188,-34.827L-25.188,-37.162L-27.186,-37.162L-27.186,-42.645L-26.343,-42.645L-26.343,-43.169L-25.937,-43.169L-25.937,-43.581L-41.953,-43.581L-41.953,-43.169L-41.548,-43.169L-41.548,-42.645L-40.7,-42.645L-40.7,-37.162L-42.701,-37.162L-42.701,-34.827L-46.182,-34.827L-46.182,-34.416L-45.347,-34.416L-45.347,-34.005L-42.701,-32.706L-42.701,-26.763L-42.234,-26.397L-42.234,27.959L142.188,27.959L142.188,-26.397L142.656,-26.763L142.656,-32.706L145.302,-34.005L145.302,-34.416L146.137,-34.416L146.137,-34.827Z" style="fill:rgb(35,112,133);"/>
            </g>
            <g transform="matrix(1.33333,0,0,1.33333,1064.43,347.072)">
                <path d="M0,7.082L-0.807,7.082C-0.871,6.895 -0.979,6.733 -1.17,6.619C-1.208,6.218 -0.67,6.358 -0.74,5.957C-0.807,5.556 -1.162,5.54 -1.249,5.217C-1.302,5.014 -1.301,4.758 -1.257,4.515L-1.146,4.515C-1.125,4.515 -1.108,4.494 -1.108,4.465L-1.108,4.432C-1.108,4.407 -1.125,4.382 -1.146,4.382L-1.238,4.382C-1.162,4.104 -1.004,3.861 -0.74,3.762L-0.74,3.46L-2.315,3.46L-2.315,3.762C-2.05,3.861 -1.891,4.104 -1.813,4.382L-1.906,4.382C-1.927,4.382 -1.943,4.407 -1.943,4.432L-1.943,4.465C-1.943,4.494 -1.927,4.515 -1.906,4.515L-1.796,4.515C-1.751,4.758 -1.75,5.014 -1.803,5.217C-1.89,5.54 -2.245,5.556 -2.315,5.957C-2.382,6.358 -1.844,6.218 -1.882,6.619C-2.073,6.733 -2.181,6.895 -2.248,7.082L-2.482,7.082C-2.549,6.895 -2.657,6.733 -2.849,6.619C-2.886,6.218 -2.345,6.358 -2.415,5.957C-2.485,5.556 -2.841,5.54 -2.928,5.217C-2.98,5.014 -2.979,4.758 -2.934,4.515L-2.824,4.515C-2.804,4.515 -2.787,4.494 -2.787,4.465L-2.787,4.432C-2.787,4.407 -2.804,4.382 -2.824,4.382L-2.915,4.382C-2.837,4.104 -2.679,3.861 -2.415,3.762L-2.415,3.46L-3.99,3.46L-3.99,3.762C-3.727,3.861 -3.567,4.104 -3.49,4.382L-3.58,4.382C-3.602,4.382 -3.618,4.407 -3.618,4.432L-3.618,4.465C-3.618,4.494 -3.602,4.515 -3.58,4.515L-3.472,4.515C-3.428,4.758 -3.427,5.014 -3.481,5.217C-3.564,5.54 -3.92,5.556 -3.99,5.957C-4.061,6.358 -3.522,6.218 -3.556,6.619C-3.747,6.733 -3.855,6.895 -3.922,7.082L-4.159,7.082C-4.225,6.895 -4.332,6.733 -4.523,6.619C-4.561,6.218 -4.023,6.358 -4.094,5.957C-4.159,5.556 -4.515,5.54 -4.602,5.217C-4.654,5.014 -4.654,4.758 -4.609,4.515L-4.498,4.515C-4.478,4.515 -4.461,4.494 -4.461,4.465L-4.461,4.432C-4.461,4.407 -4.478,4.382 -4.498,4.382L-4.592,4.382C-4.515,4.104 -4.357,3.861 -4.094,3.762L-4.094,3.46L-5.664,3.46L-5.664,3.762C-5.4,3.861 -5.242,4.104 -5.166,4.382L-5.259,4.382C-5.279,4.382 -5.296,4.407 -5.296,4.432L-5.296,4.465C-5.296,4.494 -5.279,4.515 -5.259,4.515L-5.147,4.515C-5.104,4.758 -5.103,5.014 -5.155,5.217C-5.242,5.54 -5.598,5.556 -5.664,5.957C-5.734,6.358 -5.197,6.218 -5.234,6.619C-5.426,6.733 -5.533,6.895 -5.599,7.082L-5.835,7.082C-5.902,6.895 -6.011,6.733 -6.201,6.619C-6.239,6.218 -5.697,6.358 -5.768,5.957C-5.838,5.556 -6.193,5.54 -6.275,5.217C-6.33,5.014 -6.33,4.758 -6.285,4.515L-6.177,4.515C-6.156,4.515 -6.14,4.494 -6.14,4.465L-6.14,4.432C-6.14,4.407 -6.156,4.382 -6.177,4.382L-6.268,4.382C-6.189,4.104 -6.031,3.861 -5.768,3.762L-5.768,3.46L-7.343,3.46L-7.343,3.762C-7.079,3.861 -6.92,4.104 -6.843,4.382L-6.934,4.382C-6.954,4.382 -6.971,4.407 -6.971,4.432L-6.971,4.465C-6.971,4.494 -6.954,4.515 -6.934,4.515L-6.824,4.515C-6.78,4.758 -6.779,5.014 -6.834,5.217C-6.917,5.54 -7.272,5.556 -7.343,5.957C-7.413,6.358 -6.871,6.218 -6.908,6.619C-7.1,6.733 -7.208,6.895 -7.275,7.082L-7.51,7.082C-7.576,6.895 -7.685,6.733 -7.876,6.619C-7.913,6.218 -7.376,6.358 -7.441,5.957C-7.512,5.556 -7.867,5.54 -7.954,5.217C-8.007,5.014 -8.007,4.758 -7.962,4.515L-7.852,4.515C-7.83,4.515 -7.814,4.494 -7.814,4.465L-7.814,4.432C-7.814,4.407 -7.83,4.382 -7.852,4.382L-7.943,4.382C-7.866,4.104 -7.708,3.861 -7.441,3.762L-7.441,3.46L-9.018,3.46L-9.018,3.762C-8.753,3.861 -8.596,4.104 -8.519,4.382L-8.611,4.382C-8.633,4.382 -8.648,4.407 -8.648,4.432L-8.648,4.465C-8.648,4.494 -8.633,4.515 -8.611,4.515L-8.501,4.515C-8.456,4.758 -8.456,5.014 -8.509,5.217C-8.596,5.54 -8.951,5.556 -9.018,5.957C-9.088,6.358 -8.55,6.218 -8.587,6.619C-8.778,6.733 -8.886,6.895 -8.951,7.082L-9.188,7.082C-9.255,6.895 -9.363,6.733 -9.555,6.619C-9.588,6.218 -9.05,6.358 -9.12,5.957C-9.19,5.556 -9.546,5.54 -9.629,5.217C-9.684,5.014 -9.683,4.758 -9.639,4.515L-9.525,4.515C-9.509,4.515 -9.488,4.494 -9.488,4.465L-9.488,4.432C-9.488,4.407 -9.509,4.382 -9.525,4.382L-9.62,4.382C-9.543,4.104 -9.384,3.861 -9.12,3.762L-9.12,3.46L-10.695,3.46L-10.695,3.762C-10.432,3.861 -10.273,4.104 -10.195,4.382L-10.286,4.382C-10.307,4.382 -10.323,4.407 -10.323,4.432L-10.323,4.465C-10.323,4.494 -10.307,4.515 -10.286,4.515L-10.177,4.515C-10.131,4.758 -10.13,5.014 -10.183,5.217C-10.27,5.54 -10.625,5.556 -10.695,5.957C-10.766,6.358 -10.225,6.218 -10.262,6.619C-10.452,6.733 -10.561,6.895 -10.628,7.082L-10.862,7.082C-10.93,6.895 -11.037,6.733 -11.229,6.619C-11.266,6.218 -10.729,6.358 -10.795,5.957C-10.865,5.556 -11.221,5.54 -11.308,5.217C-11.36,5.014 -11.359,4.758 -11.314,4.515L-11.204,4.515C-11.184,4.515 -11.167,4.494 -11.167,4.465L-11.167,4.432C-11.167,4.407 -11.184,4.382 -11.204,4.382L-11.297,4.382C-11.219,4.104 -11.061,3.861 -10.795,3.762L-10.795,3.46L-12.369,3.46L-12.369,3.762C-12.105,3.861 -11.948,4.104 -11.871,4.382L-11.965,4.382C-11.985,4.382 -12.002,4.407 -12.002,4.432L-12.002,4.465C-12.002,4.494 -11.985,4.515 -11.965,4.515L-11.854,4.515C-11.809,4.758 -11.809,5.014 -11.861,5.217C-11.948,5.54 -12.304,5.556 -12.369,5.957C-12.439,6.358 -11.902,6.218 -11.936,6.619C-12.13,6.733 -12.238,6.895 -12.304,7.082L-12.54,7.082C-12.605,6.895 -12.713,6.733 -12.907,6.619C-12.94,6.218 -12.402,6.358 -12.473,5.957C-12.543,5.556 -12.895,5.54 -12.981,5.217C-13.036,5.014 -13.035,4.758 -12.991,4.515L-12.878,4.515C-12.857,4.515 -12.841,4.494 -12.841,4.465L-12.841,4.432C-12.841,4.407 -12.857,4.382 -12.878,4.382L-12.973,4.382C-12.896,4.104 -12.737,3.861 -12.473,3.762L-12.473,3.46L-14.048,3.46L-14.048,3.762C-13.784,3.861 -13.626,4.104 -13.548,4.382L-13.639,4.382C-13.659,4.382 -13.676,4.407 -13.676,4.432L-13.676,4.465C-13.676,4.494 -13.659,4.515 -13.639,4.515L-13.529,4.515C-13.484,4.758 -13.482,5.014 -13.535,5.217C-13.622,5.54 -13.978,5.556 -14.048,5.957C-14.118,6.358 -13.577,6.218 -13.614,6.619C-13.806,6.733 -13.913,6.895 -13.98,7.082L-14.215,7.082C-14.282,6.895 -14.391,6.733 -14.582,6.619C-14.619,6.218 -14.077,6.358 -14.147,5.957C-14.218,5.556 -14.573,5.54 -14.66,5.217C-14.713,5.014 -14.713,4.758 -14.668,4.515L-14.557,4.515C-14.536,4.515 -14.52,4.494 -14.52,4.465L-14.52,4.432C-14.52,4.407 -14.536,4.382 -14.557,4.382L-14.649,4.382C-14.572,4.104 -14.413,3.861 -14.147,3.762L-14.147,3.46L-15.723,3.46L-15.723,3.762C-15.459,3.861 -15.3,4.104 -15.223,4.382L-15.317,4.382C-15.338,4.382 -15.354,4.407 -15.354,4.432L-15.354,4.465C-15.354,4.494 -15.338,4.515 -15.317,4.515L-15.205,4.515C-15.16,4.758 -15.159,5.014 -15.214,5.217C-15.301,5.54 -15.652,5.556 -15.723,5.957C-15.793,6.358 -15.256,6.218 -15.288,6.619C-15.482,6.733 -15.59,6.895 -15.655,7.082L-15.893,7.082C-15.959,6.895 -16.065,6.733 -16.26,6.619C-16.293,6.218 -15.756,6.358 -15.826,5.957C-15.896,5.556 -16.248,5.54 -16.334,5.217C-16.389,5.014 -16.389,4.758 -16.344,4.515L-16.231,4.515C-16.21,4.515 -16.193,4.494 -16.193,4.465L-16.193,4.432C-16.193,4.407 -16.21,4.382 -16.231,4.382L-16.325,4.382C-16.248,4.104 -16.09,3.861 -15.826,3.762L-15.826,3.46L-17.4,3.46L-17.4,3.762C-17.135,3.861 -16.977,4.104 -16.899,4.382L-16.991,4.382C-17.013,4.382 -17.029,4.407 -17.029,4.432L-17.029,4.465C-17.029,4.494 -17.013,4.515 -16.991,4.515L-16.881,4.515C-16.836,4.758 -16.836,5.014 -16.889,5.217C-16.975,5.54 -17.331,5.556 -17.4,5.957C-17.467,6.358 -16.93,6.218 -16.967,6.619C-17.158,6.733 -17.267,6.895 -17.333,7.082L-17.568,7.082C-17.635,6.895 -17.743,6.733 -17.934,6.619C-17.972,6.218 -17.43,6.358 -17.5,5.957C-17.57,5.556 -17.926,5.54 -18.013,5.217C-18.065,5.014 -18.064,4.758 -18.019,4.515L-17.909,4.515C-17.889,4.515 -17.872,4.494 -17.872,4.465L-17.872,4.432C-17.872,4.407 -17.889,4.382 -17.909,4.382L-18,4.382C-17.923,4.104 -17.764,3.861 -17.5,3.762L-17.5,3.46L-19.075,3.46L-19.075,3.762C-18.812,3.861 -18.652,4.104 -18.575,4.382L-18.67,4.382C-18.69,4.382 -18.707,4.407 -18.707,4.432L-18.707,4.465C-18.707,4.494 -18.69,4.515 -18.67,4.515L-18.558,4.515C-18.513,4.758 -18.513,5.014 -18.566,5.217C-18.653,5.54 -19.005,5.556 -19.075,5.957C-19.146,6.358 -18.608,6.218 -18.641,6.619C-18.832,6.733 -18.94,6.895 -19.008,7.082L-19.244,7.082C-19.311,6.895 -19.418,6.733 -19.612,6.619C-19.646,6.218 -19.108,6.358 -19.179,5.957C-19.245,5.556 -19.601,5.54 -19.687,5.217C-19.741,5.014 -19.741,4.758 -19.696,4.515L-19.584,4.515C-19.563,4.515 -19.547,4.494 -19.547,4.465L-19.547,4.432C-19.547,4.407 -19.563,4.382 -19.584,4.382L-19.678,4.382C-19.602,4.104 -19.442,3.861 -19.179,3.762L-19.179,3.46L-20.754,3.46L-20.754,3.762C-20.488,3.861 -20.329,4.104 -20.252,4.382L-20.345,4.382C-20.365,4.382 -20.382,4.407 -20.382,4.432L-20.382,4.465C-20.382,4.494 -20.365,4.515 -20.345,4.515L-20.233,4.515C-20.188,4.758 -20.188,5.014 -20.241,5.217C-20.328,5.54 -20.684,5.556 -20.754,5.957C-20.82,6.358 -20.282,6.218 -20.319,6.619C-20.511,6.733 -20.619,6.895 -20.686,7.082L-20.921,7.082C-20.987,6.895 -21.096,6.733 -21.287,6.619C-21.324,6.218 -20.782,6.358 -20.854,5.957C-20.924,5.556 -21.278,5.54 -21.365,5.217C-21.418,5.014 -21.417,4.758 -21.372,4.515L-21.262,4.515C-21.241,4.515 -21.225,4.494 -21.225,4.465L-21.225,4.432C-21.225,4.407 -21.241,4.382 -21.262,4.382L-21.354,4.382C-21.275,4.104 -21.117,3.861 -20.854,3.762L-20.854,3.46L-22.428,3.46L-22.428,3.762C-22.164,3.861 -22.006,4.104 -21.928,4.382L-22.023,4.382C-22.044,4.382 -22.061,4.407 -22.061,4.432L-22.061,4.465C-22.061,4.494 -22.044,4.515 -22.023,4.515L-21.91,4.515C-21.865,4.758 -21.865,5.014 -21.92,5.217C-22.002,5.54 -22.357,5.556 -22.428,5.957C-22.498,6.358 -21.961,6.218 -21.994,6.619C-22.186,6.733 -22.293,6.895 -22.36,7.082L-22.598,7.082C-22.662,6.895 -22.77,6.733 -22.961,6.619C-22.998,6.218 -22.461,6.358 -22.531,5.957C-22.602,5.556 -22.953,5.54 -23.04,5.217C-23.093,5.014 -23.092,4.758 -23.048,4.515L-22.937,4.515C-22.916,4.515 -22.899,4.494 -22.899,4.465L-22.899,4.432C-22.899,4.407 -22.916,4.382 -22.937,4.382L-23.029,4.382C-22.953,4.104 -22.795,3.861 -22.531,3.762L-22.531,3.46L-24.106,3.46L-24.106,3.762C-23.841,3.861 -23.682,4.104 -23.604,4.382L-23.697,4.382C-23.718,4.382 -23.734,4.407 -23.734,4.432L-23.734,4.465C-23.734,4.494 -23.718,4.515 -23.697,4.515L-23.586,4.515C-23.542,4.758 -23.541,5.014 -23.594,5.217C-23.681,5.54 -24.036,5.556 -24.106,5.957C-24.173,6.358 -23.635,6.218 -23.672,6.619C-23.863,6.733 -23.972,6.895 -24.039,7.082L-24.273,7.082C-24.34,6.895 -24.448,6.733 -24.64,6.619C-24.677,6.218 -24.135,6.358 -24.205,5.957C-24.275,5.556 -24.632,5.54 -24.719,5.217C-24.771,5.014 -24.77,4.758 -24.725,4.515L-24.615,4.515C-24.594,4.515 -24.578,4.494 -24.578,4.465L-24.578,4.432C-24.578,4.407 -24.594,4.382 -24.615,4.382L-24.706,4.382C-24.628,4.104 -24.47,3.861 -24.205,3.762L-24.205,3.46L-25.781,3.46L-25.781,3.762C-25.518,3.861 -25.358,4.104 -25.281,4.382L-25.371,4.382C-25.393,4.382 -25.408,4.407 -25.408,4.432L-25.408,4.465C-25.408,4.494 -25.393,4.515 -25.371,4.515L-25.263,4.515C-25.218,4.758 -25.218,5.014 -25.272,5.217C-25.355,5.54 -25.711,5.556 -25.781,5.957C-25.852,6.358 -25.313,6.218 -25.347,6.619C-25.538,6.733 -25.646,6.895 -25.713,7.082L-25.95,7.082C-26.016,6.895 -26.123,6.733 -26.314,6.619C-26.352,6.218 -25.813,6.358 -25.884,5.957C-25.95,5.556 -26.306,5.54 -26.393,5.217C-26.445,5.014 -26.445,4.758 -26.4,4.515L-26.289,4.515C-26.269,4.515 -26.252,4.494 -26.252,4.465L-26.252,4.432C-26.252,4.407 -26.269,4.382 -26.289,4.382L-26.383,4.382C-26.306,4.104 -26.148,3.861 -25.884,3.762L-25.884,3.46L-27.459,3.46L-27.459,3.762C-27.193,3.861 -27.035,4.104 -26.957,4.382L-27.05,4.382C-27.07,4.382 -27.087,4.407 -27.087,4.432L-27.087,4.465C-27.087,4.494 -27.07,4.515 -27.05,4.515L-26.939,4.515C-26.895,4.758 -26.895,5.014 -26.946,5.217C-27.033,5.54 -27.389,5.556 -27.459,5.957C-27.525,6.358 -26.988,6.218 -27.025,6.619C-27.217,6.733 -27.324,6.895 -27.392,7.082L-28.195,7.082L-28.195,3.374L-27.798,3.374L-27.798,3.187L-0.397,3.187L-0.397,3.374L0,3.374L0,7.082ZM-1.387,8.165L-1.675,8.165L-1.675,8.334L-1.53,8.334L-1.53,8.504L-26.665,8.504L-26.665,8.334L-26.521,8.334L-26.521,8.165L-26.809,8.165L-27.253,7.942L-0.942,7.942L-1.387,8.165ZM-32.709,7.082L-33.52,7.082C-33.585,6.895 -33.692,6.733 -33.884,6.619C-33.921,6.218 -33.384,6.358 -33.454,5.957C-33.52,5.556 -33.875,5.54 -33.962,5.217C-34.015,5.014 -34.015,4.758 -33.97,4.515L-33.859,4.515C-33.838,4.515 -33.821,4.494 -33.821,4.465L-33.821,4.432C-33.821,4.407 -33.838,4.382 -33.859,4.382L-33.952,4.382C-33.875,4.104 -33.718,3.861 -33.454,3.762L-33.454,3.46L-35.029,3.46L-35.029,3.762C-34.763,3.861 -34.604,4.104 -34.527,4.382L-34.619,4.382C-34.641,4.382 -34.656,4.407 -34.656,4.432L-34.656,4.465C-34.656,4.494 -34.641,4.515 -34.619,4.515L-34.509,4.515C-34.464,4.758 -34.463,5.014 -34.516,5.217C-34.603,5.54 -34.959,5.556 -35.029,5.957C-35.095,6.358 -34.558,6.218 -34.595,6.619C-34.786,6.733 -34.895,6.895 -34.961,7.082L-35.195,7.082C-35.263,6.895 -35.371,6.733 -35.563,6.619C-35.6,6.218 -35.058,6.358 -35.128,5.957C-35.198,5.556 -35.554,5.54 -35.637,5.217C-35.691,5.014 -35.69,4.758 -35.646,4.515L-35.537,4.515C-35.517,4.515 -35.5,4.494 -35.5,4.465L-35.5,4.432C-35.5,4.407 -35.517,4.382 -35.537,4.382L-35.628,4.382C-35.551,4.104 -35.392,3.861 -35.128,3.762L-35.128,3.46L-36.703,3.46L-36.703,3.762C-36.439,3.861 -36.28,4.104 -36.203,4.382L-36.294,4.382C-36.314,4.382 -36.331,4.407 -36.331,4.432L-36.331,4.465C-36.331,4.494 -36.314,4.515 -36.294,4.515L-36.186,4.515C-36.141,4.758 -36.141,5.014 -36.194,5.217C-36.277,5.54 -36.633,5.556 -36.703,5.957C-36.773,6.358 -36.232,6.218 -36.27,6.619C-36.46,6.733 -36.568,6.895 -36.635,7.082L-36.872,7.082C-36.938,6.895 -37.045,6.733 -37.236,6.619C-37.273,6.218 -36.736,6.358 -36.807,5.957C-36.873,5.556 -37.229,5.54 -37.314,5.217C-37.367,5.014 -37.367,4.758 -37.322,4.515L-37.212,4.515C-37.191,4.515 -37.174,4.494 -37.174,4.465L-37.174,4.432C-37.174,4.407 -37.191,4.382 -37.212,4.382L-37.305,4.382C-37.228,4.104 -37.07,3.861 -36.807,3.762L-36.807,3.46L-38.377,3.46L-38.377,3.762C-38.113,3.861 -37.956,4.104 -37.879,4.382L-37.973,4.382C-37.993,4.382 -38.01,4.407 -38.01,4.432L-38.01,4.465C-38.01,4.494 -37.993,4.515 -37.973,4.515L-37.861,4.515C-37.816,4.758 -37.816,5.014 -37.869,5.217C-37.956,5.54 -38.312,5.556 -38.377,5.957C-38.447,6.358 -37.91,6.218 -37.947,6.619C-38.139,6.733 -38.246,6.895 -38.312,7.082L-38.549,7.082C-38.615,6.895 -38.724,6.733 -38.915,6.619C-38.952,6.218 -38.41,6.358 -38.48,5.957C-38.551,5.556 -38.906,5.54 -38.989,5.217C-39.044,5.014 -39.043,4.758 -38.999,4.515L-38.886,4.515C-38.869,4.515 -38.849,4.494 -38.849,4.465L-38.849,4.432C-38.849,4.407 -38.869,4.382 -38.886,4.382L-38.98,4.382C-38.903,4.104 -38.744,3.861 -38.48,3.762L-38.48,3.46L-40.056,3.46L-40.056,3.762C-39.792,3.861 -39.633,4.104 -39.557,4.382L-39.646,4.382C-39.667,4.382 -39.684,4.407 -39.684,4.432L-39.684,4.465C-39.684,4.494 -39.667,4.515 -39.646,4.515L-39.538,4.515C-39.493,4.758 -39.493,5.014 -39.547,5.217C-39.63,5.54 -39.985,5.556 -40.056,5.957C-40.126,6.358 -39.585,6.218 -39.622,6.619C-39.813,6.733 -39.921,6.895 -39.988,7.082L-40.223,7.082C-40.29,6.895 -40.398,6.733 -40.589,6.619C-40.626,6.218 -40.089,6.358 -40.155,5.957C-40.226,5.556 -40.581,5.54 -40.668,5.217C-40.721,5.014 -40.72,4.758 -40.675,4.515L-40.564,4.515C-40.544,4.515 -40.527,4.494 -40.527,4.465L-40.527,4.432C-40.527,4.407 -40.544,4.382 -40.564,4.382L-40.656,4.382C-40.58,4.104 -40.421,3.861 -40.155,3.762L-40.155,3.46L-41.73,3.46L-41.73,3.762C-41.467,3.861 -41.309,4.104 -41.232,4.382L-41.325,4.382C-41.346,4.382 -41.362,4.407 -41.362,4.432L-41.362,4.465C-41.362,4.494 -41.346,4.515 -41.325,4.515L-41.214,4.515C-41.17,4.758 -41.169,5.014 -41.222,5.217C-41.309,5.54 -41.664,5.556 -41.73,5.957C-41.801,6.358 -41.263,6.218 -41.296,6.619C-41.49,6.733 -41.599,6.895 -41.664,7.082L-41.901,7.082C-41.968,6.895 -42.076,6.733 -42.268,6.619C-42.301,6.218 -41.764,6.358 -41.834,5.957C-41.904,5.556 -42.26,5.54 -42.342,5.217C-42.396,5.014 -42.396,4.758 -42.352,4.515L-42.238,4.515C-42.223,4.515 -42.201,4.494 -42.201,4.465L-42.201,4.432C-42.201,4.407 -42.223,4.382 -42.238,4.382L-42.333,4.382C-42.256,4.104 -42.098,3.861 -41.834,3.762L-41.834,3.46L-43.408,3.46L-43.408,3.762C-43.145,3.861 -42.986,4.104 -42.908,4.382L-42.999,4.382C-43.02,4.382 -43.036,4.407 -43.036,4.432L-43.036,4.465C-43.036,4.494 -43.02,4.515 -42.999,4.515L-42.89,4.515C-42.845,4.758 -42.844,5.014 -42.896,5.217C-42.982,5.54 -43.338,5.556 -43.408,5.957C-43.479,6.358 -42.938,6.218 -42.975,6.619C-43.166,6.733 -43.273,6.895 -43.341,7.082L-43.575,7.082C-43.643,6.895 -43.751,6.733 -43.942,6.619C-43.979,6.218 -43.441,6.358 -43.508,5.957C-43.578,5.556 -43.934,5.54 -44.021,5.217C-44.073,5.014 -44.072,4.758 -44.027,4.515L-43.917,4.515C-43.896,4.515 -43.88,4.494 -43.88,4.465L-43.88,4.432C-43.88,4.407 -43.896,4.382 -43.917,4.382L-44.01,4.382C-43.933,4.104 -43.773,3.861 -43.508,3.762L-43.508,3.46L-45.083,3.46L-45.083,3.762C-44.819,3.861 -44.66,4.104 -44.583,4.382L-44.678,4.382C-44.698,4.382 -44.715,4.407 -44.715,4.432L-44.715,4.465C-44.715,4.494 -44.698,4.515 -44.678,4.515L-44.564,4.515C-44.521,4.758 -44.52,5.014 -44.574,5.217C-44.661,5.54 -45.013,5.556 -45.083,5.957C-45.153,6.358 -44.615,6.218 -44.648,6.619C-44.843,6.733 -44.951,6.895 -45.017,7.082L-45.253,7.082C-45.319,6.895 -45.426,6.733 -45.62,6.619C-45.653,6.218 -45.116,6.358 -45.187,5.957C-45.257,5.556 -45.608,5.54 -45.695,5.217C-45.749,5.014 -45.749,4.758 -45.704,4.515L-45.592,4.515C-45.57,4.515 -45.555,4.494 -45.555,4.465L-45.555,4.432C-45.555,4.407 -45.57,4.382 -45.592,4.382L-45.686,4.382C-45.608,4.104 -45.45,3.861 -45.187,3.762L-45.187,3.46L-46.762,3.46L-46.762,3.762C-46.496,3.861 -46.337,4.104 -46.26,4.382L-46.352,4.382C-46.373,4.382 -46.39,4.407 -46.39,4.432L-46.39,4.465C-46.39,4.494 -46.373,4.515 -46.352,4.515L-46.241,4.515C-46.196,4.758 -46.196,5.014 -46.249,5.217C-46.336,5.54 -46.691,5.556 -46.762,5.957C-46.832,6.358 -46.29,6.218 -46.327,6.619C-46.519,6.733 -46.627,6.895 -46.693,7.082L-46.928,7.082C-46.995,6.895 -47.104,6.733 -47.295,6.619C-47.332,6.218 -46.79,6.358 -46.86,5.957C-46.931,5.556 -47.286,5.54 -47.373,5.217C-47.426,5.014 -47.425,4.758 -47.379,4.515L-47.27,4.515C-47.249,4.515 -47.232,4.494 -47.232,4.465L-47.232,4.432C-47.232,4.407 -47.249,4.382 -47.27,4.382L-47.361,4.382C-47.283,4.104 -47.125,3.861 -46.86,3.762L-46.86,3.46L-48.436,3.46L-48.436,3.762C-48.172,3.861 -48.014,4.104 -47.936,4.382L-48.03,4.382C-48.051,4.382 -48.068,4.407 -48.068,4.432L-48.068,4.465C-48.068,4.494 -48.051,4.515 -48.03,4.515L-47.918,4.515C-47.873,4.758 -47.873,5.014 -47.928,5.217C-48.014,5.54 -48.365,5.556 -48.436,5.957C-48.506,6.358 -47.969,6.218 -48.002,6.619C-48.196,6.733 -48.303,6.895 -48.369,7.082L-48.605,7.082C-48.671,6.895 -48.779,6.733 -48.973,6.619C-49.006,6.218 -48.469,6.358 -48.539,5.957C-48.605,5.556 -48.961,5.54 -49.048,5.217C-49.101,5.014 -49.1,4.758 -49.056,4.515L-48.944,4.515C-48.924,4.515 -48.907,4.494 -48.907,4.465L-48.907,4.432C-48.907,4.407 -48.924,4.382 -48.944,4.382L-49.037,4.382C-48.961,4.104 -48.803,3.861 -48.539,3.762L-48.539,3.46L-50.114,3.46L-50.114,3.762C-49.849,3.861 -49.689,4.104 -49.612,4.382L-49.705,4.382C-49.726,4.382 -49.742,4.407 -49.742,4.432L-49.742,4.465C-49.742,4.494 -49.726,4.515 -49.705,4.515L-49.594,4.515C-49.549,4.758 -49.549,5.014 -49.602,5.217C-49.688,5.54 -50.044,5.556 -50.114,5.957C-50.18,6.358 -49.643,6.218 -49.68,6.619C-49.871,6.733 -49.979,6.895 -50.047,7.082L-50.281,7.082C-50.348,6.895 -50.456,6.733 -50.647,6.619C-50.685,6.218 -50.143,6.358 -50.213,5.957C-50.283,5.556 -50.639,5.54 -50.726,5.217C-50.778,5.014 -50.777,4.758 -50.732,4.515L-50.623,4.515C-50.602,4.515 -50.586,4.494 -50.586,4.465L-50.586,4.432C-50.586,4.407 -50.602,4.382 -50.623,4.382L-50.714,4.382C-50.636,4.104 -50.477,3.861 -50.213,3.762L-50.213,3.46L-51.789,3.46L-51.789,3.762C-51.524,3.861 -51.366,4.104 -51.289,4.382L-51.383,4.382C-51.404,4.382 -51.421,4.407 -51.421,4.432L-51.421,4.465C-51.421,4.494 -51.404,4.515 -51.383,4.515L-51.271,4.515C-51.226,4.758 -51.226,5.014 -51.28,5.217C-51.367,5.54 -51.719,5.556 -51.789,5.957C-51.858,6.358 -51.321,6.218 -51.354,6.619C-51.546,6.733 -51.654,6.895 -51.721,7.082L-51.958,7.082C-52.023,6.895 -52.131,6.733 -52.321,6.619C-52.359,6.218 -51.821,6.358 -51.892,5.957C-51.958,5.556 -52.313,5.54 -52.4,5.217C-52.453,5.014 -52.452,4.758 -52.408,4.515L-52.297,4.515C-52.276,4.515 -52.26,4.494 -52.26,4.465L-52.26,4.432C-52.26,4.407 -52.276,4.382 -52.297,4.382L-52.39,4.382C-52.313,4.104 -52.155,3.861 -51.892,3.762L-51.892,3.46L-53.467,3.46L-53.467,3.762C-53.201,3.861 -53.043,4.104 -52.965,4.382L-53.058,4.382C-53.078,4.382 -53.095,4.407 -53.095,4.432L-53.095,4.465C-53.095,4.494 -53.078,4.515 -53.058,4.515L-52.947,4.515C-52.902,4.758 -52.901,5.014 -52.954,5.217C-53.041,5.54 -53.396,5.556 -53.467,5.957C-53.533,6.358 -52.996,6.218 -53.033,6.619C-53.225,6.733 -53.332,6.895 -53.399,7.082L-53.634,7.082C-53.701,6.895 -53.809,6.733 -54,6.619C-54.037,6.218 -53.496,6.358 -53.566,5.957C-53.637,5.556 -53.992,5.54 -54.079,5.217C-54.131,5.014 -54.13,4.758 -54.085,4.515L-53.976,4.515C-53.955,4.515 -53.938,4.494 -53.938,4.465L-53.938,4.432C-53.938,4.407 -53.955,4.382 -53.976,4.382L-54.066,4.382C-53.988,4.104 -53.83,3.861 -53.566,3.762L-53.566,3.46L-55.142,3.46L-55.142,3.762C-54.877,3.861 -54.719,4.104 -54.642,4.382L-54.732,4.382C-54.757,4.382 -54.773,4.407 -54.773,4.432L-54.773,4.465C-54.773,4.494 -54.757,4.515 -54.732,4.515L-54.623,4.515C-54.578,4.758 -54.578,5.014 -54.633,5.217C-54.715,5.54 -55.071,5.556 -55.142,5.957C-55.212,6.358 -54.67,6.218 -54.707,6.619C-54.898,6.733 -55.007,6.895 -55.073,7.082L-55.311,7.082C-55.376,6.895 -55.483,6.733 -55.675,6.619C-55.712,6.218 -55.174,6.358 -55.244,5.957C-55.311,5.556 -55.666,5.54 -55.753,5.217C-55.806,5.014 -55.805,4.758 -55.761,4.515L-55.649,4.515C-55.629,4.515 -55.612,4.494 -55.612,4.465L-55.612,4.432C-55.612,4.407 -55.629,4.382 -55.649,4.382L-55.742,4.382C-55.666,4.104 -55.508,3.861 -55.244,3.762L-55.244,3.46L-56.815,3.46L-56.815,3.762C-56.552,3.861 -56.395,4.104 -56.317,4.382L-56.41,4.382C-56.431,4.382 -56.447,4.407 -56.447,4.432L-56.447,4.465C-56.447,4.494 -56.431,4.515 -56.41,4.515L-56.299,4.515C-56.255,4.758 -56.254,5.014 -56.307,5.217C-56.394,5.54 -56.749,5.556 -56.815,5.957C-56.886,6.358 -56.349,6.218 -56.386,6.619C-56.577,6.733 -56.685,6.895 -56.75,7.082L-56.986,7.082C-57.054,6.895 -57.162,6.733 -57.354,6.619C-57.391,6.218 -56.849,6.358 -56.919,5.957C-56.989,5.556 -57.345,5.54 -57.428,5.217C-57.481,5.014 -57.481,4.758 -57.437,4.515L-57.328,4.515C-57.308,4.515 -57.291,4.494 -57.291,4.465L-57.291,4.432C-57.291,4.407 -57.308,4.382 -57.328,4.382L-57.419,4.382C-57.342,4.104 -57.183,3.861 -56.919,3.762L-56.919,3.46L-58.494,3.46L-58.494,3.762C-58.23,3.861 -58.071,4.104 -57.994,4.382L-58.085,4.382C-58.105,4.382 -58.122,4.407 -58.122,4.432L-58.122,4.465C-58.122,4.494 -58.105,4.515 -58.085,4.515L-57.976,4.515C-57.93,4.758 -57.929,5.014 -57.981,5.217C-58.019,5.354 -58.105,5.435 -58.197,5.515L-58.374,5.408L-59.002,5.408C-59.003,5.407 -59.003,5.405 -59.004,5.404L-59.153,4.815C-59.152,4.715 -59.132,4.615 -59.113,4.515L-59.002,4.515C-58.981,4.515 -58.965,4.494 -58.965,4.465L-58.965,4.432C-58.965,4.407 -58.981,4.382 -59.002,4.382L-59.096,4.382C-59.019,4.104 -58.861,3.861 -58.598,3.762L-58.598,3.46L-59.288,3.46L-59.288,3.187L-33.11,3.187L-33.11,3.374L-32.709,3.374L-32.709,7.082ZM-34.1,8.165L-34.388,8.165L-34.388,8.334L-34.243,8.334L-34.243,8.504L-57.432,8.504L-57.432,7.942L-33.655,7.942L-34.1,8.165ZM-64.753,4.366L-64.773,4.366L-65.038,5.408L-65.667,5.408L-66.436,5.874L-66.783,5.874L-66.783,6.123L-66.605,6.123L-66.605,7.297L-67.783,7.297L-67.783,-1.963L-65.629,-1.963L-65.629,-1.753L-65.236,-1.753L-65.236,-1.166L-64.753,-1.166L-64.753,4.366ZM-66.605,11.439L-67.783,11.439L-67.783,7.578L-66.605,7.578L-66.605,11.439ZM-68.407,7.297L-68.714,7.297L-68.714,-1.963L-68.407,-1.963L-68.407,7.297ZM-68.407,11.439L-68.714,11.439L-68.714,7.578L-68.407,7.578L-68.407,11.439ZM-69.094,7.297L-70.19,7.297L-70.19,-1.963L-69.094,-1.963L-69.094,7.297ZM-69.094,11.439L-70.19,11.439L-70.19,7.578L-69.094,7.578L-69.094,11.439ZM-70.569,7.297L-71.665,7.297L-71.665,-1.963L-70.569,-1.963L-70.569,7.297ZM-70.569,11.439L-71.665,11.439L-71.665,7.578L-70.569,7.578L-70.569,11.439ZM-72.046,7.297L-73.141,7.297L-73.141,-1.963L-72.046,-1.963L-72.046,7.297ZM-72.046,11.439L-73.141,11.439L-73.141,7.578L-72.046,7.578L-72.046,11.439ZM-73.521,7.297L-74.617,7.297L-74.617,-1.963L-73.521,-1.963L-73.521,7.297ZM-73.521,11.439L-74.617,11.439L-74.617,7.578L-73.521,7.578L-73.521,11.439ZM-74.997,7.297L-76.093,7.297L-76.093,-1.963L-74.997,-1.963L-74.997,7.297ZM-74.997,11.439L-76.093,11.439L-76.093,7.578L-74.997,7.578L-74.997,11.439ZM-76.473,7.297L-77.569,7.297L-77.569,-1.963L-76.473,-1.963L-76.473,7.297ZM-76.473,11.439L-77.569,11.439L-77.569,7.578L-76.473,7.578L-76.473,11.439ZM-77.949,7.297L-78.242,7.297L-78.242,-1.963L-77.949,-1.963L-77.949,7.297ZM-77.949,11.439L-78.242,11.439L-78.242,7.578L-77.949,7.578L-77.949,11.439ZM-78.871,7.297L-79.164,7.297L-79.164,-1.963L-78.871,-1.963L-78.871,7.297ZM-78.871,11.439L-79.164,11.439L-79.164,7.578L-78.871,7.578L-78.871,11.439ZM-79.545,7.297L-80.641,7.297L-80.641,-1.963L-79.545,-1.963L-79.545,7.297ZM-79.545,11.439L-80.641,11.439L-80.641,7.578L-79.545,7.578L-79.545,11.439ZM-81.021,7.297L-82.117,7.297L-82.117,-1.963L-81.021,-1.963L-81.021,7.297ZM-81.021,11.439L-82.117,11.439L-82.117,7.578L-81.021,7.578L-81.021,11.439ZM-82.496,7.297L-83.592,7.297L-83.592,-1.963L-82.496,-1.963L-82.496,7.297ZM-82.496,11.439L-83.592,11.439L-83.592,7.578L-82.496,7.578L-82.496,11.439ZM-83.973,7.297L-85.069,7.297L-85.069,-1.963L-83.973,-1.963L-83.973,7.297ZM-83.973,11.439L-85.069,11.439L-85.069,7.578L-83.973,7.578L-83.973,11.439ZM-85.448,7.297L-86.544,7.297L-86.544,-1.963L-85.448,-1.963L-85.448,7.297ZM-85.448,11.439L-86.544,11.439L-86.544,7.578L-85.448,7.578L-85.448,11.439ZM-86.924,7.297L-88.02,7.297L-88.02,-1.963L-86.924,-1.963L-86.924,7.297ZM-86.924,11.439L-88.02,11.439L-88.02,7.578L-86.924,7.578L-86.924,11.439ZM-88.4,7.297L-88.693,7.297L-88.693,-1.963L-88.4,-1.963L-88.4,7.297ZM-88.4,11.439L-88.693,11.439L-88.693,7.578L-88.4,7.578L-88.4,11.439ZM-89.322,7.297L-89.615,7.297L-89.615,-1.963L-89.322,-1.963L-89.322,7.297ZM-89.322,11.439L-89.615,11.439L-89.615,7.578L-89.322,7.578L-89.322,11.439ZM-89.996,7.297L-91.092,7.297L-91.092,-1.963L-89.996,-1.963L-89.996,7.297ZM-89.996,11.439L-91.092,11.439L-91.092,7.578L-89.996,7.578L-89.996,11.439ZM-91.472,7.297L-92.568,7.297L-92.568,-1.963L-91.472,-1.963L-91.472,7.297ZM-91.472,11.439L-92.568,11.439L-92.568,7.578L-91.472,7.578L-91.472,11.439ZM-92.947,7.297L-94.043,7.297L-94.043,-1.963L-92.947,-1.963L-92.947,7.297ZM-92.947,11.439L-94.043,11.439L-94.043,7.578L-92.947,7.578L-92.947,11.439ZM-94.424,7.297L-95.52,7.297L-95.52,-1.963L-94.424,-1.963L-94.424,7.297ZM-94.424,11.439L-95.52,11.439L-95.52,7.578L-94.424,7.578L-94.424,11.439ZM-95.899,7.297L-96.995,7.297L-96.995,-1.963L-95.899,-1.963L-95.899,7.297ZM-95.899,11.439L-96.995,11.439L-96.995,7.578L-95.899,7.578L-95.899,11.439ZM-97.375,7.297L-98.471,7.297L-98.471,-1.963L-97.375,-1.963L-97.375,7.297ZM-97.375,11.439L-98.471,11.439L-98.471,7.578L-97.375,7.578L-97.375,11.439ZM-98.852,7.297L-99.145,7.297L-99.145,-1.963L-98.852,-1.963L-98.852,7.297ZM-98.852,11.439L-99.145,11.439L-99.145,7.578L-98.852,7.578L-98.852,11.439ZM-99.773,7.297L-100.96,7.297L-100.96,6.123L-100.782,6.123L-100.782,5.874L-101.129,5.874L-101.898,5.408L-102.526,5.408L-102.791,4.366L-102.812,4.366L-102.812,-1.166L-102.328,-1.166L-102.328,-1.753L-101.936,-1.753L-101.936,-1.963L-99.773,-1.963L-99.773,7.297ZM-99.773,11.439L-100.96,11.439L-100.96,7.578L-99.773,7.578L-99.773,11.439ZM-108.277,3.46L-108.968,3.46L-108.968,3.762C-108.703,3.861 -108.546,4.104 -108.469,4.382L-108.563,4.382C-108.583,4.382 -108.6,4.407 -108.6,4.432L-108.6,4.465C-108.6,4.494 -108.583,4.515 -108.563,4.515L-108.451,4.515C-108.433,4.614 -108.412,4.715 -108.412,4.815L-108.562,5.405C-108.563,5.406 -108.563,5.407 -108.563,5.408L-109.19,5.408L-109.367,5.514C-109.457,5.435 -109.544,5.354 -109.579,5.217C-109.634,5.014 -109.633,4.758 -109.589,4.515L-109.476,4.515C-109.459,4.515 -109.438,4.494 -109.438,4.465L-109.438,4.432C-109.438,4.407 -109.459,4.382 -109.476,4.382L-109.57,4.382C-109.493,4.104 -109.334,3.861 -109.07,3.762L-109.07,3.46L-110.646,3.46L-110.646,3.762C-110.382,3.861 -110.224,4.104 -110.146,4.382L-110.236,4.382C-110.257,4.382 -110.273,4.407 -110.273,4.432L-110.273,4.465C-110.273,4.494 -110.257,4.515 -110.236,4.515L-110.128,4.515C-110.083,4.758 -110.083,5.014 -110.138,5.217C-110.22,5.54 -110.575,5.556 -110.646,5.957C-110.716,6.358 -110.175,6.218 -110.212,6.619C-110.402,6.733 -110.511,6.895 -110.578,7.082L-110.813,7.082C-110.88,6.895 -110.988,6.733 -111.18,6.619C-111.217,6.218 -110.679,6.358 -110.745,5.957C-110.815,5.556 -111.171,5.54 -111.258,5.217C-111.311,5.014 -111.31,4.758 -111.265,4.515L-111.154,4.515C-111.134,4.515 -111.117,4.494 -111.117,4.465L-111.117,4.432C-111.117,4.407 -111.134,4.382 -111.154,4.382L-111.247,4.382C-111.17,4.104 -111.011,3.861 -110.745,3.762L-110.745,3.46L-112.32,3.46L-112.32,3.762C-112.057,3.861 -111.898,4.104 -111.822,4.382L-111.915,4.382C-111.936,4.382 -111.952,4.407 -111.952,4.432L-111.952,4.465C-111.952,4.494 -111.936,4.515 -111.915,4.515L-111.804,4.515C-111.76,4.758 -111.759,5.014 -111.812,5.217C-111.898,5.54 -112.254,5.556 -112.32,5.957C-112.391,6.358 -111.853,6.218 -111.886,6.619C-112.08,6.733 -112.188,6.895 -112.254,7.082L-112.491,7.082C-112.559,6.895 -112.666,6.733 -112.857,6.619C-112.891,6.218 -112.354,6.358 -112.424,5.957C-112.494,5.556 -112.85,5.54 -112.932,5.217C-112.986,5.014 -112.986,4.758 -112.941,4.515L-112.828,4.515C-112.808,4.515 -112.791,4.494 -112.791,4.465L-112.791,4.432C-112.791,4.407 -112.808,4.382 -112.828,4.382L-112.923,4.382C-112.846,4.104 -112.688,3.861 -112.424,3.762L-112.424,3.46L-113.998,3.46L-113.998,3.762C-113.734,3.861 -113.576,4.104 -113.498,4.382L-113.59,4.382C-113.609,4.382 -113.627,4.407 -113.627,4.432L-113.627,4.465C-113.627,4.494 -113.609,4.515 -113.59,4.515L-113.479,4.515C-113.435,4.758 -113.434,5.014 -113.486,5.217C-113.572,5.54 -113.928,5.556 -113.998,5.957C-114.068,6.358 -113.527,6.218 -113.564,6.619C-113.756,6.733 -113.864,6.895 -113.931,7.082L-114.166,7.082C-114.232,6.895 -114.341,6.733 -114.532,6.619C-114.569,6.218 -114.031,6.358 -114.098,5.957C-114.168,5.556 -114.523,5.54 -114.61,5.217C-114.663,5.014 -114.662,4.758 -114.618,4.515L-114.507,4.515C-114.486,4.515 -114.47,4.494 -114.47,4.465L-114.47,4.432C-114.47,4.407 -114.486,4.382 -114.507,4.382L-114.6,4.382C-114.522,4.104 -114.363,3.861 -114.098,3.762L-114.098,3.46L-115.673,3.46L-115.673,3.762C-115.409,3.861 -115.25,4.104 -115.173,4.382L-115.268,4.382C-115.288,4.382 -115.305,4.407 -115.305,4.432L-115.305,4.465C-115.305,4.494 -115.288,4.515 -115.268,4.515L-115.154,4.515C-115.11,4.758 -115.109,5.014 -115.164,5.217C-115.251,5.54 -115.603,5.556 -115.673,5.957C-115.743,6.358 -115.205,6.218 -115.238,6.619C-115.434,6.733 -115.541,6.895 -115.606,7.082L-115.844,7.082C-115.909,6.895 -116.016,6.733 -116.21,6.619C-116.243,6.218 -115.706,6.358 -115.776,5.957C-115.847,5.556 -116.198,5.54 -116.285,5.217C-116.339,5.014 -116.339,4.758 -116.294,4.515L-116.182,4.515C-116.16,4.515 -116.145,4.494 -116.145,4.465L-116.145,4.432C-116.145,4.407 -116.16,4.382 -116.182,4.382L-116.275,4.382C-116.199,4.104 -116.04,3.861 -115.776,3.762L-115.776,3.46L-117.352,3.46L-117.352,3.762C-117.086,3.861 -116.927,4.104 -116.85,4.382L-116.941,4.382C-116.963,4.382 -116.979,4.407 -116.979,4.432L-116.979,4.465C-116.979,4.494 -116.963,4.515 -116.941,4.515L-116.831,4.515C-116.786,4.758 -116.786,5.014 -116.839,5.217C-116.926,5.54 -117.281,5.556 -117.352,5.957C-117.417,6.358 -116.88,6.218 -116.917,6.619C-117.108,6.733 -117.217,6.895 -117.283,7.082L-117.519,7.082C-117.585,6.895 -117.693,6.733 -117.885,6.619C-117.922,6.218 -117.381,6.358 -117.45,5.957C-117.521,5.556 -117.876,5.54 -117.963,5.217C-118.016,5.014 -118.015,4.758 -117.97,4.515L-117.859,4.515C-117.839,4.515 -117.822,4.494 -117.822,4.465L-117.822,4.432C-117.822,4.407 -117.839,4.382 -117.859,4.382L-117.951,4.382C-117.873,4.104 -117.715,3.861 -117.45,3.762L-117.45,3.46L-119.025,3.46L-119.025,3.762C-118.762,3.861 -118.604,4.104 -118.525,4.382L-118.62,4.382C-118.642,4.382 -118.658,4.407 -118.658,4.432L-118.658,4.465C-118.658,4.494 -118.642,4.515 -118.62,4.515L-118.508,4.515C-118.463,4.758 -118.463,5.014 -118.518,5.217C-118.604,5.54 -118.955,5.556 -119.025,5.957C-119.096,6.358 -118.559,6.218 -118.592,6.619C-118.783,6.733 -118.891,6.895 -118.958,7.082L-119.195,7.082C-119.261,6.895 -119.369,6.733 -119.563,6.619C-119.596,6.218 -119.059,6.358 -119.129,5.957C-119.195,5.556 -119.551,5.54 -119.638,5.217C-119.69,5.014 -119.689,4.758 -119.646,4.515L-119.534,4.515C-119.514,4.515 -119.497,4.494 -119.497,4.465L-119.497,4.432C-119.497,4.407 -119.514,4.382 -119.534,4.382L-119.627,4.382C-119.551,4.104 -119.393,3.861 -119.129,3.762L-119.129,3.46L-120.704,3.46L-120.704,3.762C-120.438,3.861 -120.279,4.104 -120.202,4.382L-120.295,4.382C-120.315,4.382 -120.332,4.407 -120.332,4.432L-120.332,4.465C-120.332,4.494 -120.315,4.515 -120.295,4.515L-120.184,4.515C-120.139,4.758 -120.139,5.014 -120.191,5.217C-120.278,5.54 -120.634,5.556 -120.704,5.957C-120.771,6.358 -120.232,6.218 -120.27,6.619C-120.461,6.733 -120.569,6.895 -120.637,7.082L-120.871,7.082C-120.938,6.895 -121.046,6.733 -121.237,6.619C-121.274,6.218 -120.733,6.358 -120.804,5.957C-120.874,5.556 -121.229,5.54 -121.316,5.217C-121.369,5.014 -121.367,4.758 -121.322,4.515L-121.213,4.515C-121.191,4.515 -121.176,4.494 -121.176,4.465L-121.176,4.432C-121.176,4.407 -121.191,4.382 -121.213,4.382L-121.304,4.382C-121.226,4.104 -121.067,3.861 -120.804,3.762L-120.804,3.46L-122.379,3.46L-122.379,3.762C-122.114,3.861 -121.956,4.104 -121.879,4.382L-121.974,4.382C-121.994,4.382 -122.011,4.407 -122.011,4.432L-122.011,4.465C-122.011,4.494 -121.994,4.515 -121.974,4.515L-121.86,4.515C-121.815,4.758 -121.815,5.014 -121.87,5.217C-121.957,5.54 -122.309,5.556 -122.379,5.957C-122.449,6.358 -121.911,6.218 -121.944,6.619C-122.136,6.733 -122.244,6.895 -122.311,7.082L-122.548,7.082C-122.613,6.895 -122.721,6.733 -122.912,6.619C-122.949,6.218 -122.411,6.358 -122.481,5.957C-122.548,5.556 -122.903,5.54 -122.99,5.217C-123.043,5.014 -123.043,4.758 -122.998,4.515L-122.887,4.515C-122.866,4.515 -122.85,4.494 -122.85,4.465L-122.85,4.432C-122.85,4.407 -122.866,4.382 -122.887,4.382L-122.979,4.382C-122.903,4.104 -122.745,3.861 -122.481,3.762L-122.481,3.46L-124.057,3.46L-124.057,3.762C-123.791,3.861 -123.633,4.104 -123.555,4.382L-123.647,4.382C-123.668,4.382 -123.685,4.407 -123.685,4.432L-123.685,4.465C-123.685,4.494 -123.668,4.515 -123.647,4.515L-123.537,4.515C-123.492,4.758 -123.491,5.014 -123.544,5.217C-123.631,5.54 -123.986,5.556 -124.057,5.957C-124.123,6.358 -123.586,6.218 -123.623,6.619C-123.814,6.733 -123.922,6.895 -123.989,7.082L-124.224,7.082C-124.291,6.895 -124.398,6.733 -124.59,6.619C-124.627,6.218 -124.086,6.358 -124.156,5.957C-124.227,5.556 -124.582,5.54 -124.669,5.217C-124.722,5.014 -124.72,4.758 -124.675,4.515L-124.565,4.515C-124.545,4.515 -124.528,4.494 -124.528,4.465L-124.528,4.432C-124.528,4.407 -124.545,4.382 -124.565,4.382L-124.656,4.382C-124.578,4.104 -124.42,3.861 -124.156,3.762L-124.156,3.46L-125.731,3.46L-125.731,3.762C-125.468,3.861 -125.309,4.104 -125.231,4.382L-125.322,4.382C-125.343,4.382 -125.359,4.407 -125.359,4.432L-125.359,4.465C-125.359,4.494 -125.343,4.515 -125.322,4.515L-125.213,4.515C-125.168,4.758 -125.168,5.014 -125.223,5.217C-125.306,5.54 -125.661,5.556 -125.731,5.957C-125.802,6.358 -125.26,6.218 -125.297,6.619C-125.488,6.733 -125.597,6.895 -125.664,7.082L-125.9,7.082C-125.966,6.895 -126.073,6.733 -126.265,6.619C-126.302,6.218 -125.764,6.358 -125.834,5.957C-125.9,5.556 -126.256,5.54 -126.343,5.217C-126.396,5.014 -126.396,4.758 -126.351,4.515L-126.239,4.515C-126.219,4.515 -126.202,4.494 -126.202,4.465L-126.202,4.432C-126.202,4.407 -126.219,4.382 -126.239,4.382L-126.332,4.382C-126.256,4.104 -126.099,3.861 -125.834,3.762L-125.834,3.46L-127.405,3.46L-127.405,3.762C-127.142,3.861 -126.984,4.104 -126.907,4.382L-127,4.382C-127.021,4.382 -127.037,4.407 -127.037,4.432L-127.037,4.465C-127.037,4.494 -127.021,4.515 -127,4.515L-126.889,4.515C-126.845,4.758 -126.844,5.014 -126.896,5.217C-126.984,5.54 -127.339,5.556 -127.405,5.957C-127.476,6.358 -126.938,6.218 -126.976,6.619C-127.167,6.733 -127.274,6.895 -127.34,7.082L-127.576,7.082C-127.644,6.895 -127.752,6.733 -127.943,6.619C-127.98,6.218 -127.438,6.358 -127.509,5.957C-127.579,5.556 -127.935,5.54 -128.018,5.217C-128.072,5.014 -128.071,4.758 -128.026,4.515L-127.918,4.515C-127.897,4.515 -127.881,4.494 -127.881,4.465L-127.881,4.432C-127.881,4.407 -127.897,4.382 -127.918,4.382L-128.009,4.382C-127.932,4.104 -127.772,3.861 -127.509,3.762L-127.509,3.46L-129.084,3.46L-129.084,3.762C-128.82,3.861 -128.662,4.104 -128.584,4.382L-128.675,4.382C-128.695,4.382 -128.712,4.407 -128.712,4.432L-128.712,4.465C-128.712,4.494 -128.695,4.515 -128.675,4.515L-128.565,4.515C-128.52,4.758 -128.519,5.014 -128.571,5.217C-128.658,5.54 -129.014,5.556 -129.084,5.957C-129.154,6.358 -128.612,6.218 -128.65,6.619C-128.841,6.733 -128.949,6.895 -129.017,7.082L-129.253,7.082C-129.318,6.895 -129.426,6.733 -129.617,6.619C-129.654,6.218 -129.117,6.358 -129.187,5.957C-129.253,5.556 -129.609,5.54 -129.695,5.217C-129.748,5.014 -129.748,4.758 -129.703,4.515L-129.593,4.515C-129.571,4.515 -129.555,4.494 -129.555,4.465L-129.555,4.432C-129.555,4.407 -129.571,4.382 -129.593,4.382L-129.686,4.382C-129.608,4.104 -129.451,3.861 -129.187,3.762L-129.187,3.46L-130.758,3.46L-130.758,3.762C-130.494,3.861 -130.337,4.104 -130.26,4.382L-130.354,4.382C-130.374,4.382 -130.391,4.407 -130.391,4.432L-130.391,4.465C-130.391,4.494 -130.374,4.515 -130.354,4.515L-130.242,4.515C-130.197,4.758 -130.197,5.014 -130.25,5.217C-130.337,5.54 -130.692,5.556 -130.758,5.957C-130.828,6.358 -130.291,6.218 -130.328,6.619C-130.52,6.733 -130.627,6.895 -130.692,7.082L-130.93,7.082C-130.996,6.895 -131.104,6.733 -131.296,6.619C-131.333,6.218 -130.791,6.358 -130.861,5.957C-130.932,5.556 -131.287,5.54 -131.37,5.217C-131.425,5.014 -131.424,4.758 -131.379,4.515L-131.267,4.515C-131.25,4.515 -131.229,4.494 -131.229,4.465L-131.229,4.432C-131.229,4.407 -131.25,4.382 -131.267,4.382L-131.361,4.382C-131.284,4.104 -131.125,3.861 -130.861,3.762L-130.861,3.46L-132.437,3.46L-132.437,3.762C-132.173,3.861 -132.014,4.104 -131.937,4.382L-132.027,4.382C-132.048,4.382 -132.064,4.407 -132.064,4.432L-132.064,4.465C-132.064,4.494 -132.048,4.515 -132.027,4.515L-131.918,4.515C-131.873,4.758 -131.871,5.014 -131.924,5.217C-132.011,5.54 -132.366,5.556 -132.437,5.957C-132.507,6.358 -131.965,6.218 -132.003,6.619C-132.194,6.733 -132.302,6.895 -132.369,7.082L-132.604,7.082C-132.67,6.895 -132.778,6.733 -132.97,6.619C-133.007,6.218 -132.47,6.358 -132.536,5.957C-132.606,5.556 -132.962,5.54 -133.049,5.217C-133.102,5.014 -133.101,4.758 -133.056,4.515L-132.945,4.515C-132.925,4.515 -132.908,4.494 -132.908,4.465L-132.908,4.432C-132.908,4.407 -132.925,4.382 -132.945,4.382L-133.038,4.382C-132.961,4.104 -132.802,3.861 -132.536,3.762L-132.536,3.46L-134.111,3.46L-134.111,3.762C-133.848,3.861 -133.689,4.104 -133.613,4.382L-133.706,4.382C-133.727,4.382 -133.743,4.407 -133.743,4.432L-133.743,4.465C-133.743,4.494 -133.727,4.515 -133.706,4.515L-133.595,4.515C-133.55,4.758 -133.55,5.014 -133.603,5.217C-133.689,5.54 -134.045,5.556 -134.111,5.957C-134.182,6.358 -133.644,6.218 -133.681,6.619C-133.872,6.733 -133.979,6.895 -134.045,7.082L-134.852,7.082L-134.852,3.374L-134.454,3.374L-134.454,3.187L-108.277,3.187L-108.277,3.46ZM-110.133,8.504L-133.321,8.504L-133.321,8.334L-133.177,8.334L-133.177,8.165L-133.465,8.165L-133.909,7.942L-110.133,7.942L-110.133,8.504ZM-139.365,7.082L-140.173,7.082C-140.24,6.895 -140.349,6.733 -140.539,6.619C-140.577,6.218 -140.039,6.358 -140.105,5.957C-140.176,5.556 -140.531,5.54 -140.618,5.217C-140.671,5.014 -140.67,4.758 -140.625,4.515L-140.515,4.515C-140.494,4.515 -140.478,4.494 -140.478,4.465L-140.478,4.432C-140.478,4.407 -140.494,4.382 -140.515,4.382L-140.607,4.382C-140.53,4.104 -140.371,3.861 -140.105,3.762L-140.105,3.46L-141.681,3.46L-141.681,3.762C-141.417,3.861 -141.259,4.104 -141.183,4.382L-141.275,4.382C-141.296,4.382 -141.312,4.407 -141.312,4.432L-141.312,4.465C-141.312,4.494 -141.296,4.515 -141.275,4.515L-141.164,4.515C-141.12,4.758 -141.119,5.014 -141.172,5.217C-141.259,5.54 -141.614,5.556 -141.681,5.957C-141.751,6.358 -141.213,6.218 -141.25,6.619C-141.441,6.733 -141.549,6.895 -141.614,7.082L-141.852,7.082C-141.918,6.895 -142.026,6.733 -142.218,6.619C-142.251,6.218 -141.714,6.358 -141.784,5.957C-141.854,5.556 -142.21,5.54 -142.293,5.217C-142.347,5.014 -142.347,4.758 -142.302,4.515L-142.189,4.515C-142.173,4.515 -142.152,4.494 -142.152,4.465L-142.152,4.432C-142.152,4.407 -142.173,4.382 -142.189,4.382L-142.283,4.382C-142.206,4.104 -142.048,3.861 -141.784,3.762L-141.784,3.46L-143.359,3.46L-143.359,3.762C-143.096,3.861 -142.937,4.104 -142.858,4.382L-142.949,4.382C-142.971,4.382 -142.986,4.407 -142.986,4.432L-142.986,4.465C-142.986,4.494 -142.971,4.515 -142.949,4.515L-142.84,4.515C-142.795,4.758 -142.794,5.014 -142.847,5.217C-142.934,5.54 -143.289,5.556 -143.359,5.957C-143.43,6.358 -142.888,6.218 -142.925,6.619C-143.116,6.733 -143.225,6.895 -143.291,7.082L-143.525,7.082C-143.593,6.895 -143.701,6.733 -143.893,6.619C-143.93,6.218 -143.392,6.358 -143.458,5.957C-143.528,5.556 -143.884,5.54 -143.971,5.217C-144.023,5.014 -144.023,4.758 -143.979,4.515L-143.867,4.515C-143.847,4.515 -143.83,4.494 -143.83,4.465L-143.83,4.432C-143.83,4.407 -143.847,4.382 -143.867,4.382L-143.96,4.382C-143.883,4.104 -143.725,3.861 -143.458,3.762L-143.458,3.46L-145.033,3.46L-145.033,3.762C-144.77,3.861 -144.611,4.104 -144.535,4.382L-144.628,4.382C-144.648,4.382 -144.665,4.407 -144.665,4.432L-144.665,4.465C-144.665,4.494 -144.648,4.515 -144.628,4.515L-144.518,4.515C-144.473,4.758 -144.473,5.014 -144.525,5.217C-144.611,5.54 -144.963,5.556 -145.033,5.957C-145.104,6.358 -144.566,6.218 -144.6,6.619C-144.793,6.733 -144.901,6.895 -144.967,7.082L-145.203,7.082C-145.27,6.895 -145.377,6.733 -145.57,6.619C-145.604,6.218 -145.066,6.358 -145.137,5.957C-145.207,5.556 -145.562,5.54 -145.646,5.217C-145.699,5.014 -145.699,4.758 -145.654,4.515L-145.542,4.515C-145.521,4.515 -145.505,4.494 -145.505,4.465L-145.505,4.432C-145.505,4.407 -145.521,4.382 -145.542,4.382L-145.637,4.382C-145.559,4.104 -145.4,3.861 -145.137,3.762L-145.137,3.46L-146.712,3.46L-146.712,3.762C-146.448,3.861 -146.289,4.104 -146.212,4.382L-146.303,4.382C-146.323,4.382 -146.34,4.407 -146.34,4.432L-146.34,4.465C-146.34,4.494 -146.323,4.515 -146.303,4.515L-146.193,4.515C-146.147,4.758 -146.146,5.014 -146.199,5.217C-146.286,5.54 -146.642,5.556 -146.712,5.957C-146.782,6.358 -146.24,6.218 -146.277,6.619C-146.469,6.733 -146.577,6.895 -146.645,7.082L-146.879,7.082C-146.945,6.895 -147.054,6.733 -147.245,6.619C-147.282,6.218 -146.74,6.358 -146.811,5.957C-146.881,5.556 -147.236,5.54 -147.324,5.217C-147.376,5.014 -147.376,4.758 -147.331,4.515L-147.221,4.515C-147.199,4.515 -147.183,4.494 -147.183,4.465L-147.183,4.432C-147.183,4.407 -147.199,4.382 -147.221,4.382L-147.312,4.382C-147.235,4.104 -147.077,3.861 -146.811,3.762L-146.811,3.46L-148.386,3.46L-148.386,3.762C-148.122,3.861 -147.964,4.104 -147.887,4.382L-147.98,4.382C-148.002,4.382 -148.019,4.407 -148.019,4.432L-148.019,4.465C-148.019,4.494 -148.002,4.515 -147.98,4.515L-147.868,4.515C-147.823,4.758 -147.823,5.014 -147.878,5.217C-147.965,5.54 -148.315,5.556 -148.386,5.957C-148.456,6.358 -147.919,6.218 -147.952,6.619C-148.146,6.733 -148.253,6.895 -148.319,7.082L-148.556,7.082C-148.621,6.895 -148.729,6.733 -148.924,6.619C-148.957,6.218 -148.419,6.358 -148.489,5.957C-148.56,5.556 -148.911,5.54 -148.998,5.217C-149.051,5.014 -149.051,4.758 -149.006,4.515L-148.895,4.515C-148.874,4.515 -148.857,4.494 -148.857,4.465L-148.857,4.432C-148.857,4.407 -148.874,4.382 -148.895,4.382L-148.987,4.382C-148.911,4.104 -148.753,3.861 -148.489,3.762L-148.489,3.46L-150.064,3.46L-150.064,3.762C-149.799,3.861 -149.64,4.104 -149.562,4.382L-149.655,4.382C-149.676,4.382 -149.692,4.407 -149.692,4.432L-149.692,4.465C-149.692,4.494 -149.676,4.515 -149.655,4.515L-149.545,4.515C-149.5,4.758 -149.499,5.014 -149.552,5.217C-149.639,5.54 -149.994,5.556 -150.064,5.957C-150.131,6.358 -149.594,6.218 -149.631,6.619C-149.821,6.733 -149.93,6.895 -149.997,7.082L-150.231,7.082C-150.299,6.895 -150.406,6.733 -150.598,6.619C-150.635,6.218 -150.094,6.358 -150.164,5.957C-150.234,5.556 -150.59,5.54 -150.676,5.217C-150.729,5.014 -150.728,4.758 -150.683,4.515L-150.573,4.515C-150.553,4.515 -150.535,4.494 -150.535,4.465L-150.535,4.432C-150.535,4.407 -150.553,4.382 -150.573,4.382L-150.664,4.382C-150.586,4.104 -150.428,3.861 -150.164,3.762L-150.164,3.46L-151.738,3.46L-151.738,3.762C-151.475,3.861 -151.316,4.104 -151.239,4.382L-151.334,4.382C-151.354,4.382 -151.371,4.407 -151.371,4.432L-151.371,4.465C-151.371,4.494 -151.354,4.515 -151.334,4.515L-151.221,4.515C-151.176,4.758 -151.176,5.014 -151.23,5.217C-151.317,5.54 -151.669,5.556 -151.738,5.957C-151.809,6.358 -151.271,6.218 -151.305,6.619C-151.496,6.733 -151.604,6.895 -151.671,7.082L-151.908,7.082C-151.973,6.895 -152.081,6.733 -152.271,6.619C-152.31,6.218 -151.771,6.358 -151.842,5.957C-151.908,5.556 -152.264,5.54 -152.351,5.217C-152.403,5.014 -152.403,4.758 -152.358,4.515L-152.247,4.515C-152.227,4.515 -152.21,4.494 -152.21,4.465L-152.21,4.432C-152.21,4.407 -152.227,4.382 -152.247,4.382L-152.34,4.382C-152.264,4.104 -152.105,3.861 -151.842,3.762L-151.842,3.46L-153.417,3.46L-153.417,3.762C-153.151,3.861 -152.993,4.104 -152.916,4.382L-153.008,4.382C-153.029,4.382 -153.045,4.407 -153.045,4.432L-153.045,4.465C-153.045,4.494 -153.029,4.515 -153.008,4.515L-152.897,4.515C-152.853,4.758 -152.852,5.014 -152.904,5.217C-152.991,5.54 -153.348,5.556 -153.417,5.957C-153.483,6.358 -152.946,6.218 -152.983,6.619C-153.175,6.733 -153.283,6.895 -153.35,7.082L-153.584,7.082C-153.651,6.895 -153.76,6.733 -153.95,6.619C-153.988,6.218 -153.446,6.358 -153.517,5.957C-153.587,5.556 -153.942,5.54 -154.025,5.217C-154.079,5.014 -154.079,4.758 -154.034,4.515L-153.926,4.515C-153.905,4.515 -153.889,4.494 -153.889,4.465L-153.889,4.432C-153.889,4.407 -153.905,4.382 -153.926,4.382L-154.016,4.382C-153.939,4.104 -153.78,3.861 -153.517,3.762L-153.517,3.46L-155.092,3.46L-155.092,3.762C-154.828,3.861 -154.669,4.104 -154.592,4.382L-154.683,4.382C-154.703,4.382 -154.724,4.407 -154.724,4.432L-154.724,4.465C-154.724,4.494 -154.703,4.515 -154.683,4.515L-154.574,4.515C-154.529,4.758 -154.528,5.014 -154.583,5.217C-154.67,5.54 -155.021,5.556 -155.092,5.957C-155.162,6.358 -154.62,6.218 -154.657,6.619C-154.849,6.733 -154.957,6.895 -155.023,7.082L-155.261,7.082C-155.326,6.895 -155.434,6.733 -155.625,6.619C-155.662,6.218 -155.125,6.358 -155.195,5.957C-155.262,5.556 -155.616,5.54 -155.703,5.217C-155.756,5.014 -155.756,4.758 -155.711,4.515L-155.6,4.515C-155.579,4.515 -155.562,4.494 -155.562,4.465L-155.562,4.432C-155.562,4.407 -155.579,4.382 -155.6,4.382L-155.693,4.382C-155.616,4.104 -155.459,3.861 -155.195,3.762L-155.195,3.46L-156.766,3.46L-156.766,3.762C-156.502,3.861 -156.345,4.104 -156.268,4.382L-156.361,4.382C-156.381,4.382 -156.398,4.407 -156.398,4.432L-156.398,4.465C-156.398,4.494 -156.381,4.515 -156.361,4.515L-156.25,4.515C-156.205,4.758 -156.205,5.014 -156.258,5.217C-156.344,5.54 -156.699,5.556 -156.766,5.957C-156.836,6.358 -156.299,6.218 -156.336,6.619C-156.527,6.733 -156.635,6.895 -156.7,7.082L-156.937,7.082C-157.004,6.895 -157.112,6.733 -157.304,6.619C-157.341,6.218 -156.799,6.358 -156.869,5.957C-156.939,5.556 -157.295,5.54 -157.382,5.217C-157.435,5.014 -157.434,4.758 -157.388,4.515L-157.278,4.515C-157.258,4.515 -157.241,4.494 -157.241,4.465L-157.241,4.432C-157.241,4.407 -157.258,4.382 -157.278,4.382L-157.369,4.382C-157.292,4.104 -157.133,3.861 -156.869,3.762L-156.869,3.46L-158.444,3.46L-158.444,3.762C-158.181,3.861 -158.021,4.104 -157.944,4.382L-158.035,4.382C-158.056,4.382 -158.072,4.407 -158.072,4.432L-158.072,4.465C-158.072,4.494 -158.056,4.515 -158.035,4.515L-157.927,4.515C-157.882,4.758 -157.881,5.014 -157.936,5.217C-158.019,5.54 -158.374,5.556 -158.444,5.957C-158.515,6.358 -157.973,6.218 -158.01,6.619C-158.201,6.733 -158.31,6.895 -158.377,7.082L-158.613,7.082C-158.679,6.895 -158.786,6.733 -158.978,6.619C-159.015,6.218 -158.478,6.358 -158.548,5.957C-158.613,5.556 -158.97,5.54 -159.057,5.217C-159.109,5.014 -159.108,4.758 -159.064,4.515L-158.953,4.515C-158.932,4.515 -158.916,4.494 -158.916,4.465L-158.916,4.432C-158.916,4.407 -158.932,4.382 -158.953,4.382L-159.046,4.382C-158.969,4.104 -158.812,3.861 -158.548,3.762L-158.548,3.46L-160.119,3.46L-160.119,3.762C-159.855,3.861 -159.697,4.104 -159.62,4.382L-159.714,4.382C-159.734,4.382 -159.751,4.407 -159.751,4.432L-159.751,4.465C-159.751,4.494 -159.734,4.515 -159.714,4.515L-159.603,4.515C-159.558,4.758 -159.558,5.014 -159.61,5.217C-159.697,5.54 -160.053,5.556 -160.119,5.957C-160.189,6.358 -159.651,6.218 -159.688,6.619C-159.88,6.733 -159.987,6.895 -160.053,7.082L-160.29,7.082C-160.356,6.895 -160.465,6.733 -160.656,6.619C-160.693,6.218 -160.151,6.358 -160.222,5.957C-160.292,5.556 -160.648,5.54 -160.73,5.217C-160.785,5.014 -160.785,4.758 -160.74,4.515L-160.631,4.515C-160.606,4.515 -160.59,4.494 -160.59,4.465L-160.59,4.432C-160.59,4.407 -160.606,4.382 -160.631,4.382L-160.722,4.382C-160.645,4.104 -160.486,3.861 -160.222,3.762L-160.222,3.46L-161.797,3.46L-161.797,3.762C-161.533,3.861 -161.375,4.104 -161.297,4.382L-161.388,4.382C-161.408,4.382 -161.425,4.407 -161.425,4.432L-161.425,4.465C-161.425,4.494 -161.408,4.515 -161.388,4.515L-161.278,4.515C-161.233,4.758 -161.232,5.014 -161.285,5.217C-161.371,5.54 -161.727,5.556 -161.797,5.957C-161.867,6.358 -161.326,6.218 -161.363,6.619C-161.555,6.733 -161.662,6.895 -161.729,7.082L-161.967,7.082C-162.031,6.895 -162.139,6.733 -162.33,6.619C-162.367,6.218 -161.83,6.358 -161.9,5.957C-161.967,5.556 -162.322,5.54 -162.409,5.217C-162.462,5.014 -162.461,4.758 -162.417,4.515L-162.306,4.515C-162.285,4.515 -162.269,4.494 -162.269,4.465L-162.269,4.432C-162.269,4.407 -162.285,4.382 -162.306,4.382L-162.398,4.382C-162.322,4.104 -162.164,3.861 -161.9,3.762L-161.9,3.46L-163.472,3.46L-163.472,3.762C-163.208,3.861 -163.05,4.104 -162.974,4.382L-163.066,4.382C-163.087,4.382 -163.104,4.407 -163.104,4.432L-163.104,4.465C-163.104,4.494 -163.087,4.515 -163.066,4.515L-162.955,4.515C-162.91,4.758 -162.91,5.014 -162.963,5.217C-163.05,5.54 -163.405,5.556 -163.472,5.957C-163.542,6.358 -163.004,6.218 -163.041,6.619C-163.232,6.733 -163.34,6.895 -163.405,7.082L-163.643,7.082C-163.709,6.895 -163.817,6.733 -164.009,6.619C-164.042,6.218 -163.505,6.358 -163.575,5.957C-163.645,5.556 -163.996,5.54 -164.083,5.217C-164.138,5.014 -164.138,4.758 -164.093,4.515L-163.98,4.515C-163.959,4.515 -163.942,4.494 -163.942,4.465L-163.942,4.432C-163.942,4.407 -163.959,4.382 -163.98,4.382L-164.074,4.382C-163.997,4.104 -163.839,3.861 -163.575,3.762L-163.575,3.46L-165.15,3.46L-165.15,3.762C-164.886,3.861 -164.728,4.104 -164.649,4.382L-164.74,4.382C-164.762,4.382 -164.777,4.407 -164.777,4.432L-164.777,4.465C-164.777,4.494 -164.762,4.515 -164.74,4.515L-164.631,4.515C-164.586,4.758 -164.584,5.014 -164.637,5.217C-164.725,5.54 -165.08,5.556 -165.15,5.957C-165.22,6.358 -164.679,6.218 -164.716,6.619C-164.907,6.733 -165.016,6.895 -165.082,7.082L-165.316,7.082C-165.384,6.895 -165.492,6.733 -165.684,6.619C-165.721,6.218 -165.184,6.358 -165.249,5.957C-165.319,5.556 -165.675,5.54 -165.762,5.217C-165.814,5.014 -165.814,4.758 -165.77,4.515L-165.658,4.515C-165.638,4.515 -165.621,4.494 -165.621,4.465L-165.621,4.432C-165.621,4.407 -165.638,4.382 -165.658,4.382L-165.751,4.382C-165.674,4.104 -165.515,3.861 -165.249,3.762L-165.249,3.46L-166.824,3.46L-166.824,3.762C-166.561,3.861 -166.402,4.104 -166.326,4.382L-166.419,4.382C-166.439,4.382 -166.456,4.407 -166.456,4.432L-166.456,4.465C-166.456,4.494 -166.439,4.515 -166.419,4.515L-166.308,4.515C-166.264,4.758 -166.263,5.014 -166.315,5.217C-166.402,5.54 -166.758,5.556 -166.824,5.957C-166.895,6.358 -166.357,6.218 -166.391,6.619C-166.584,6.733 -166.692,6.895 -166.758,7.082L-167.564,7.082L-167.564,3.374L-167.168,3.374L-167.168,3.187L-139.767,3.187L-139.767,3.374L-139.365,3.374L-139.365,7.082ZM-140.756,8.165L-141.044,8.165L-141.044,8.334L-140.899,8.334L-140.899,8.504L-166.035,8.504L-166.035,8.334L-165.89,8.334L-165.89,8.165L-166.176,8.165L-166.621,7.942L-140.312,7.942L-140.756,8.165ZM5.904,8.165L5.271,7.847L4.752,7.847L4.53,7.136L4.514,7.136L4.514,3.374L4.915,3.374L4.915,2.977L5.242,2.977L5.242,2.576L-0.724,2.576L-0.724,2.89L-27.472,2.89L-27.472,2.576L-33.438,2.576L-33.438,2.89L-59.288,2.89L-59.288,-1.166L-58.804,-1.166L-58.804,-1.753L-58.411,-1.753L-58.411,-2.34L-65.629,-2.34L-65.629,-2.245L-67.783,-2.245L-67.783,-4.161L-67.279,-4.643L-68.105,-5.953L-68.933,-4.643L-68.407,-4.141L-68.407,-2.245L-68.714,-2.245L-68.714,-2.956L-69.094,-2.956L-69.094,-2.245L-70.189,-2.245L-70.189,-2.956L-70.569,-2.956L-70.569,-2.245L-71.665,-2.245L-71.665,-2.956L-72.046,-2.956L-72.046,-2.245L-73.141,-2.245L-73.141,-2.956L-73.521,-2.956L-73.521,-2.245L-74.617,-2.245L-74.617,-2.956L-74.997,-2.956L-74.997,-2.245L-76.093,-2.245L-76.093,-2.956L-76.473,-2.956L-76.473,-2.245L-77.568,-2.245L-77.568,-2.956L-77.949,-2.956L-77.949,-2.245L-78.242,-2.245L-78.242,-4.112L-77.73,-4.643L-78.557,-5.953L-79.384,-4.643L-78.871,-4.112L-78.871,-2.245L-79.164,-2.245L-79.164,-2.956L-79.545,-2.956L-79.545,-2.245L-80.641,-2.245L-80.641,-2.956L-81.021,-2.956L-81.021,-2.245L-82.116,-2.245L-82.116,-2.956L-82.496,-2.956L-82.496,-2.245L-83.592,-2.245L-83.592,-2.956L-83.973,-2.956L-83.973,-2.245L-85.068,-2.245L-85.068,-2.956L-85.448,-2.956L-85.448,-2.245L-86.544,-2.245L-86.544,-2.956L-86.924,-2.956L-86.924,-2.245L-88.02,-2.245L-88.02,-2.956L-88.4,-2.956L-88.4,-2.245L-88.693,-2.245L-88.693,-4.153L-88.181,-4.643L-89.008,-5.953L-89.835,-4.643L-89.322,-4.153L-89.322,-2.245L-89.615,-2.245L-89.615,-2.956L-89.996,-2.956L-89.996,-2.245L-91.092,-2.245L-91.092,-2.956L-91.472,-2.956L-91.472,-2.245L-92.567,-2.245L-92.567,-2.956L-92.947,-2.956L-92.947,-2.245L-94.043,-2.245L-94.043,-2.956L-94.424,-2.956L-94.424,-2.245L-95.52,-2.245L-95.52,-2.956L-95.899,-2.956L-95.899,-2.245L-96.995,-2.245L-96.995,-2.956L-97.375,-2.956L-97.375,-2.245L-98.471,-2.245L-98.471,-2.956L-98.852,-2.956L-98.852,-2.245L-99.145,-2.245L-99.145,-4.153L-98.632,-4.643L-99.459,-5.953L-100.285,-4.643L-99.773,-4.153L-99.773,-2.245L-101.936,-2.245L-101.936,-2.34L-109.153,-2.34L-109.153,-1.753L-108.761,-1.753L-108.761,-1.166L-108.277,-1.166L-108.277,2.89L-134.128,2.89L-134.128,2.576L-140.093,2.576L-140.093,2.89L-166.841,2.89L-166.841,2.576L-172.807,2.576L-172.807,2.977L-172.479,2.977L-172.479,3.374L-172.079,3.374L-172.079,7.136L-172.096,7.136L-172.316,7.847L-172.835,7.847L-173.469,8.165L-173.757,8.165L-173.757,8.334L-173.612,8.334L-173.612,13.035L-100.96,13.035L-100.96,11.725L-99.773,11.725L-99.773,13.035L-99.145,13.035L-99.145,11.725L-98.852,11.725L-98.852,13.035L-98.471,13.035L-98.471,11.725L-97.375,11.725L-97.375,13.035L-96.995,13.035L-96.995,11.725L-95.899,11.725L-95.899,13.035L-95.52,13.035L-95.52,11.725L-94.424,11.725L-94.424,13.035L-94.043,13.035L-94.043,11.725L-92.947,11.725L-92.947,13.035L-92.567,13.035L-92.567,11.725L-91.472,11.725L-91.472,13.035L-91.092,13.035L-91.092,11.725L-89.996,11.725L-89.996,13.035L-89.615,13.035L-89.615,11.725L-89.322,11.725L-89.322,13.035L-88.693,13.035L-88.693,11.725L-88.4,11.725L-88.4,13.035L-88.02,13.035L-88.02,11.725L-86.924,11.725L-86.924,13.035L-86.544,13.035L-86.544,11.725L-85.448,11.725L-85.448,13.035L-85.068,13.035L-85.068,11.725L-83.973,11.725L-83.973,13.035L-83.592,13.035L-83.592,11.725L-82.496,11.725L-82.496,13.035L-82.116,13.035L-82.116,11.725L-81.021,11.725L-81.021,13.035L-80.641,13.035L-80.641,11.725L-79.545,11.725L-79.545,13.035L-79.164,13.035L-79.164,11.725L-78.871,11.725L-78.871,13.035L-78.242,13.035L-78.242,11.725L-77.949,11.725L-77.949,13.035L-77.568,13.035L-77.568,11.725L-76.473,11.725L-76.473,13.035L-76.093,13.035L-76.093,11.725L-74.997,11.725L-74.997,13.035L-74.617,13.035L-74.617,11.725L-73.521,11.725L-73.521,13.035L-73.141,13.035L-73.141,11.725L-72.046,11.725L-72.046,13.035L-71.665,13.035L-71.665,11.725L-70.569,11.725L-70.569,13.035L-70.189,13.035L-70.189,11.725L-69.094,11.725L-69.094,13.035L-68.714,13.035L-68.714,11.725L-68.407,11.725L-68.407,13.035L-67.783,13.035L-67.783,11.725L-66.605,11.725L-66.605,13.035L6.048,13.035L6.048,8.334L6.192,8.334L6.192,8.165L5.904,8.165Z" style="fill:rgb(188,212,218);"/>
            </g>
            <g transform="matrix(-1.33333,0,0,1.33333,377.027,200.616)">
                <path d="M0.001,-16.498C-4.542,-16.498 -8.249,-12.792 -8.249,-8.248C-8.249,-3.705 -4.542,0 0.001,0C4.544,0 8.25,-3.705 8.25,-8.248C8.25,-12.792 4.544,-16.498 0.001,-16.498" style="fill:rgb(188,212,218);"/>
            </g>
            <g transform="matrix(1.33333,0,0,1.33333,393.561,218.12)">
                <path d="M0,43.758L-7.251,43.758L-7.251,15.366C-7.251,13.372 -5.621,11.74 -3.625,11.74C-1.632,11.74 0,13.372 0,15.366L0,43.758ZM-8.405,6.727C-8.85,6.366 -9.417,6.148 -10.033,6.148C-10.648,6.148 -11.215,6.366 -11.661,6.727L-11.661,3.415C-11.661,2.52 -10.927,1.786 -10.033,1.786C-9.137,1.786 -8.405,2.52 -8.405,3.415L-8.405,6.727ZM-8.405,12.702C-9.146,11.663 -10.321,10.95 -11.661,10.84L-11.661,9.006C-11.661,8.11 -10.927,7.378 -10.033,7.378C-9.137,7.378 -8.405,8.11 -8.405,9.006L-8.405,12.702ZM-8.405,43.758L-15.656,43.758L-15.656,15.366C-15.656,13.372 -14.025,11.74 -12.03,11.74C-10.036,11.74 -8.405,13.372 -8.405,15.366L-8.405,43.758ZM-16.808,6.88C-17.254,6.517 -17.821,6.299 -18.437,6.299C-19.052,6.299 -19.62,6.517 -20.065,6.88L-20.065,5.303C-20.065,4.409 -19.332,3.675 -18.437,3.675C-17.541,3.675 -16.808,4.408 -16.808,5.303L-16.808,6.88ZM-16.808,12.702C-17.549,11.663 -18.724,10.95 -20.065,10.84L-20.065,9.006C-20.065,8.11 -19.332,7.378 -18.437,7.378C-17.541,7.378 -16.808,8.11 -16.808,9.006L-16.808,12.702ZM-16.808,43.758L-24.06,43.758L-24.06,15.366C-24.06,13.372 -22.427,11.74 -20.434,11.74C-18.439,11.74 -16.808,13.372 -16.808,15.366L-16.808,43.758ZM-15.656,9.006C-15.656,8.11 -14.923,7.378 -14.027,7.378C-13.132,7.378 -12.398,8.11 -12.398,9.006L-12.398,10.84C-13.739,10.95 -14.915,11.663 -15.656,12.702L-15.656,9.006ZM-15.656,3.415C-15.656,2.52 -14.923,1.786 -14.027,1.786C-13.132,1.786 -12.398,2.52 -12.398,3.415L-12.398,6.727C-12.845,6.366 -13.412,6.148 -14.027,6.148C-14.643,6.148 -15.21,6.366 -15.656,6.727L-15.656,3.415ZM-7.251,9.006C-7.251,8.11 -6.519,7.378 -5.624,7.378C-4.729,7.378 -3.995,8.11 -3.995,9.006L-3.995,10.84C-5.335,10.95 -6.511,11.663 -7.251,12.702L-7.251,9.006ZM-7.251,5.303C-7.251,4.408 -6.519,3.675 -5.624,3.675C-4.729,3.675 -3.995,4.409 -3.995,5.303L-3.995,6.88C-4.441,6.517 -5.007,6.299 -5.624,6.299C-6.238,6.299 -6.806,6.517 -7.251,6.88L-7.251,5.303ZM-12.03,-1.553C-16.679,0.424 -25.68,2.779 -25.787,11.57L-25.787,45.311L1.727,45.311L1.727,11.57C1.621,2.779 -7.381,0.424 -12.03,-1.553" style="fill:rgb(188,212,218);"/>
            </g>
            <g transform="matrix(1.33333,0,0,1.33333,377.025,183.68)">
                <path d="M0,8.907C-1.433,8.907 -2.697,8.213 -3.513,7.156L-1.95,6.137L-0.301,5.062C-0.209,5.108 -0.109,5.14 0,5.14C0.378,5.14 0.687,4.832 0.687,4.453C0.687,4.209 0.551,4.003 0.357,3.882L0.216,2.677L0.007,0.899L-0.202,2.677L-0.341,3.871C-0.536,3.987 -0.671,4.188 -0.681,4.428L-2.206,5.807L-3.591,7.062C-4.127,6.326 -4.454,5.429 -4.454,4.453C-4.454,2 -2.453,0 0,0C2.454,0 4.454,2 4.454,4.453C4.454,6.906 2.454,8.907 0,8.907M9.214,4.913L9.214,3.993L5.239,3.993C5.184,3.367 5.031,2.772 4.775,2.227L8.209,0.244L7.75,-0.552L4.32,1.428C3.966,0.925 3.528,0.487 3.025,0.133L5.005,-3.297L4.208,-3.756L2.226,-0.322C1.681,-0.578 1.086,-0.73 0.46,-0.785L0.46,-4.76L-0.46,-4.76L-0.46,-0.785C-1.086,-0.73 -1.681,-0.578 -2.226,-0.322L-4.208,-3.756L-5.005,-3.297L-3.025,0.133C-3.528,0.487 -3.966,0.925 -4.32,1.428L-7.749,-0.552L-8.209,0.244L-4.775,2.227C-5.031,2.772 -5.184,3.367 -5.239,3.993L-9.214,3.993L-9.214,4.913L-5.239,4.913C-5.184,5.539 -5.031,6.134 -4.776,6.679L-8.209,8.662L-7.749,9.459L-4.32,7.478C-3.967,7.982 -3.529,8.42 -3.026,8.773L-5.005,12.203L-4.208,12.663L-2.226,9.229C-1.681,9.485 -1.086,9.637 -0.46,9.692L-0.46,13.667L0.46,13.667L0.46,9.692C1.086,9.637 1.681,9.485 2.227,9.229L4.208,12.663L5.005,12.203L3.026,8.773C3.529,8.419 3.967,7.981 4.321,7.478L7.75,9.459L8.209,8.662L4.776,6.679C5.031,6.134 5.184,5.539 5.239,4.913L9.214,4.913Z" style="fill:rgb(35,112,133);"/>
            </g>
        </g>
    </g>
</svg>
