<?xml version="1.0" encoding="UTF-8" standalone="no"?>
<!DOCTYPE svg PUBLIC "-//W3C//DTD SVG 1.1//EN" "http://www.w3.org/Graphics/SVG/1.1/DTD/svg11.dtd">
<svg width="100%" height="100%" viewBox="0 0 1600 411" version="1.1" xmlns="http://www.w3.org/2000/svg" xmlns:xlink="http://www.w3.org/1999/xlink" xml:space="preserve" xmlns:serif="http://www.serif.com/" style="fill-rule:evenodd;clip-rule:evenodd;stroke-linejoin:round;stroke-miterlimit:2;">
    <g id="_0" serif:id="0">
        <g>
            <path d="M1372.33,90.905L1372.33,88.893L1371.49,88.893L1371.49,72.181L1372.01,72.181L1372.01,65.46L1372.16,65.46C1372.25,65.46 1372.33,65.332 1372.33,65.173L1372.33,62.876C1372.33,62.716 1372.25,62.588 1372.16,62.588L1368.83,62.588C1368.73,62.588 1368.65,62.716 1368.65,62.876L1368.65,65.173C1368.65,65.332 1368.73,65.46 1368.83,65.46L1368.98,65.46L1368.98,68.769L1366.02,68.769L1366.02,65.46L1366.28,65.46C1366.43,65.46 1366.57,65.332 1366.57,65.173L1366.57,62.876C1366.57,62.716 1366.43,62.588 1366.28,62.588L1360.6,62.588C1360.44,62.588 1360.32,62.716 1360.32,62.876L1360.32,65.173C1360.32,65.332 1360.44,65.46 1360.6,65.46L1360.86,65.46L1360.86,68.769L1356.9,68.769L1356.9,65.46L1357.16,65.46C1357.32,65.46 1357.45,65.332 1357.45,65.173L1357.45,62.876C1357.45,62.716 1357.32,62.588 1357.16,62.588L1351.48,62.588C1351.33,62.588 1351.2,62.716 1351.2,62.876L1351.2,65.173C1351.2,65.332 1351.33,65.46 1351.48,65.46L1351.74,65.46L1351.74,68.769L1348.3,68.769L1348.3,65.46L1348.49,65.46C1348.61,65.46 1348.7,65.332 1348.7,65.173L1348.7,62.876C1348.7,62.716 1348.61,62.588 1348.49,62.588L1344.24,62.588C1344.13,62.588 1344.03,62.716 1344.03,62.876L1344.03,65.173C1344.03,65.332 1344.13,65.46 1344.24,65.46L1344.43,65.46L1344.43,72.181L1344.97,72.181L1344.97,88.893L1344.13,88.893L1344.13,90.905L1344.97,90.905L1344.97,93.884L1341.7,93.884C1341.23,93.884 1340.83,94.28 1340.83,94.765L1340.83,98.024L1337.36,98.024L1337.36,94.765C1337.36,94.28 1336.97,93.884 1336.48,93.884L1329.79,93.884C1329.3,93.884 1328.91,94.28 1328.91,94.765L1328.91,98.024L1325.44,98.024L1325.44,94.765C1325.44,94.28 1325.04,93.884 1324.56,93.884L1320.23,93.884L1320.23,52.534C1320.35,52.404 1320.42,52.232 1320.42,52.041C1320.42,51.637 1320.09,51.306 1319.69,51.306C1319.29,51.306 1318.96,51.637 1318.96,52.041C1318.96,52.232 1319.04,52.404 1319.16,52.534L1319.16,93.884L1317.87,93.884C1317.38,93.884 1316.98,94.28 1316.98,94.765L1316.98,98.024L1313.52,98.024L1313.52,94.765C1313.52,94.28 1313.13,93.884 1312.64,93.884L1311.62,93.884L1311.62,81.489L1312.46,81.489L1312.46,79.478L1311.62,79.478L1311.62,62.766L1312.13,62.766L1312.13,56.045L1312.28,56.045C1312.38,56.045 1312.45,55.917 1312.45,55.758L1312.45,53.46C1312.45,53.302 1312.38,53.173 1312.28,53.173L1308.95,53.173C1308.86,53.173 1308.78,53.302 1308.78,53.46L1308.78,55.758C1308.78,55.917 1308.86,56.045 1308.95,56.045L1309.1,56.045L1309.1,58.706L1306.15,58.706L1306.15,56.045L1306.4,56.045C1306.56,56.045 1306.69,55.917 1306.69,55.758L1306.69,53.46C1306.69,53.302 1306.56,53.173 1306.4,53.173L1300.72,53.173C1300.57,53.173 1300.44,53.302 1300.44,53.46L1300.44,55.758C1300.44,55.917 1300.57,56.045 1300.72,56.045L1300.98,56.045L1300.98,58.706L1297.03,58.706L1297.03,56.045L1297.28,56.045C1297.44,56.045 1297.58,55.917 1297.58,55.758L1297.58,53.46C1297.58,53.302 1297.44,53.173 1297.28,53.173L1291.61,53.173C1291.45,53.173 1291.33,53.302 1291.33,53.46L1291.33,55.758C1291.33,55.917 1291.45,56.045 1291.61,56.045L1291.86,56.045L1291.86,58.706L1288.42,58.706L1288.42,56.045L1288.61,56.045C1288.74,56.045 1288.83,55.917 1288.83,55.758L1288.83,53.46C1288.83,53.302 1288.74,53.173 1288.61,53.173L1284.37,53.173C1284.25,53.173 1284.15,53.302 1284.15,53.46L1284.15,55.758C1284.15,55.917 1284.25,56.045 1284.37,56.045L1284.56,56.045L1284.56,62.766L1285.1,62.766L1285.1,79.478L1284.25,79.478L1284.25,81.489L1285.1,81.489L1285.1,94.892L1285.78,94.892L1285.78,99.332L1273.97,108.446L1273.97,99.902L1274.42,99.902L1274.42,94.129L1274.55,94.129C1274.63,94.129 1274.69,94.02 1274.69,93.884L1274.69,91.909C1274.69,91.774 1274.63,91.665 1274.55,91.665L1271.68,91.665C1271.61,91.665 1271.54,91.774 1271.54,91.909L1271.54,93.884C1271.54,94.02 1271.61,94.129 1271.68,94.129L1271.82,94.129L1271.82,96.914L1269.28,96.914L1269.28,94.129L1269.5,94.129C1269.64,94.129 1269.75,94.02 1269.75,93.884L1269.75,91.909C1269.75,91.774 1269.64,91.665 1269.5,91.665L1264.63,91.665C1264.49,91.665 1264.38,91.774 1264.38,91.909L1264.38,93.884C1264.38,94.02 1264.49,94.129 1264.63,94.129L1264.85,94.129L1264.85,96.914L1261.44,96.914L1261.44,94.129L1261.67,94.129C1261.8,94.129 1261.91,94.02 1261.91,93.884L1261.91,91.909C1261.91,91.774 1261.8,91.665 1261.67,91.665L1256.79,91.665C1256.66,91.665 1256.55,91.774 1256.55,91.909L1256.55,93.884C1256.55,94.02 1256.66,94.129 1256.79,94.129L1257.01,94.129L1257.01,96.914L1254.05,96.914L1254.05,94.129L1254.22,94.129C1254.32,94.129 1254.4,94.02 1254.4,93.884L1254.4,91.909C1254.4,91.774 1254.32,91.665 1254.22,91.665L1250.58,91.665C1250.47,91.665 1250.39,91.774 1250.39,91.909L1250.39,93.884C1250.39,94.02 1250.47,94.129 1250.58,94.129L1250.74,94.129L1250.74,99.902L1251.2,99.902L1251.2,114.257L1250.47,114.257L1250.47,115.986L1251.2,115.986L1251.2,127.494L1251.2,127.494L1251.2,181.376L1249.02,184.381L1249.02,295.722L1251.2,295.722L1251.2,358.632L1371.37,358.632L1371.37,145.145L1371.52,145.145L1371.52,100.71L1371.49,100.71L1371.49,90.905L1372.33,90.905ZM1129.39,220.79L1126.2,220.79L1123.26,210.293L1120.32,220.79L1119.19,220.79L1119.19,216.57L1117.88,216.57L1116,205.42L1114.12,216.57L1091.42,216.57L1087.6,210.017L1084.65,215.08L1084.65,184.121L1085.78,184.121L1085.78,182.521L1082.48,182.521L1082.48,157.781L1083.31,157.781L1083.31,156.182L1080.98,156.182L1080.98,127.921L1081.68,127.921L1081.68,124.048L1058.73,124.048L1057,118.88L1056.78,114.878L1057.36,114.878C1057.58,114.878 1057.76,114.697 1057.76,114.476L1057.76,113.401C1057.76,113.177 1057.58,112.997 1057.36,112.997L1056.68,112.997L1056.15,103.046L1055.63,112.826L1055.62,112.997L1054.94,112.997C1054.72,112.997 1054.53,113.177 1054.53,113.401L1054.53,114.476C1054.53,114.697 1054.72,114.878 1054.94,114.878L1055.52,114.878L1055.3,118.881L1054.52,121.213L1053.57,124.048L1030.62,124.048L1030.62,127.921L1031.32,127.921L1031.32,156.182L1028.99,156.182L1028.99,157.781L1029.82,157.781L1029.82,182.521L1026.52,182.521L1026.52,184.121L1027.65,184.121L1027.65,214.681L916.301,214.681L916.301,322.714L1086.28,322.714L1086.28,306.194L1130.08,306.194L1130.08,239.592L1129.39,239.592L1129.39,239.08L1130.36,235.652L1129.39,232.224L1129.39,223.425L1130.62,223.425L1130.62,221.926L1129.39,221.926L1129.39,220.79ZM252.91,229.346L251.033,229.346L251.033,228.21L243.313,228.21L246.562,224.238L228.441,202.088L218.845,213.818L218.845,187.981L175.702,187.981L175.702,216.744L152.077,216.744L152.077,221.88L135.129,221.88L135.129,214.174L92.014,214.174L76.393,196.6L61.729,212.848L61.729,204.378L63.238,204.378L63.238,201.206L61.729,201.206L61.729,199.244L53.286,199.244L53.286,201.206L51.777,201.206L51.777,204.378L53.286,204.378L53.286,214.174L44.221,214.174L44.221,221.88L36.003,221.88L36.003,291.894L193.062,291.894L193.062,313.616L251.033,313.616L251.033,230.846L252.91,230.846L252.91,229.346ZM1539.72,237.407L1531.58,216.644L1527.42,227.235L1515.47,227.235L1509.12,195.504L1505.69,212.68L1480.94,212.68L1477.65,196.236L1469.51,236.938L1475.26,236.938L1475.26,298.026L1532.16,298.026L1532.16,237.407L1539.72,237.407ZM354.969,216.491L354.969,187.728L340.326,187.728L340.326,183.682L316.981,183.682L316.981,187.728L311.826,187.728L311.826,208.58L306.15,208.58L300.302,216.491L288.202,216.491L288.202,256.49L390.938,256.49L390.938,216.491L354.969,216.491Z" style="fill:rgb(245,207,181);"/>
        </g>
    </g>
</svg>
