<?xml version="1.0" encoding="UTF-8" standalone="no"?>
<!DOCTYPE svg PUBLIC "-//W3C//DTD SVG 1.1//EN" "http://www.w3.org/Graphics/SVG/1.1/DTD/svg11.dtd">
<svg width="100%" height="100%" viewBox="0 0 1600 411" version="1.1" xmlns="http://www.w3.org/2000/svg" xmlns:xlink="http://www.w3.org/1999/xlink" xml:space="preserve" xmlns:serif="http://www.serif.com/" style="fill-rule:evenodd;clip-rule:evenodd;stroke-linejoin:round;stroke-miterlimit:2;">
    <g id="_1" serif:id="1">
        <g>
            <path d="M472.446,86.598L471.097,84.833L465.516,84.833L465.516,74.498L465.252,74.449L465.252,69.101L465.609,69.101L465.609,68.539L466.204,68.062L466.204,67.711L466.738,67.711L466.738,67.154L465.938,67.154L463.005,50.541L460.196,34.629L460.401,34.629C460.477,34.629 460.541,34.549 460.541,34.45L460.541,34.242C460.9,34.242 461.194,33.954 461.194,33.601C461.194,33.283 460.952,33.03 460.642,32.981C460.656,32.929 460.674,32.881 460.674,32.825C460.674,32.473 460.38,32.185 460.018,32.185C459.657,32.185 459.362,32.473 459.362,32.825C459.362,32.881 459.381,32.929 459.394,32.981C459.084,33.03 458.841,33.283 458.841,33.601C458.841,33.954 459.134,34.242 459.496,34.242L459.496,34.45C459.496,34.549 459.558,34.629 459.634,34.629L459.84,34.629L457.03,50.541L454.097,67.154L453.296,67.154L453.296,67.711L453.832,67.711L453.832,68.062L454.428,68.539L454.428,69.101L454.784,69.101L454.784,72.505L440.489,69.85L440.489,64.763L440.844,64.763L440.844,64.203L441.438,63.726L441.438,63.375L441.976,63.375L441.976,62.818L441.176,62.818L438.241,46.205L435.433,30.293L435.636,30.293C435.712,30.293 435.776,30.213 435.776,30.113L435.776,29.905C436.136,29.905 436.432,29.617 436.432,29.265C436.432,28.946 436.188,28.694 435.877,28.643C435.89,28.593 435.909,28.543 435.909,28.489C435.909,28.135 435.616,27.847 435.254,27.847C434.892,27.847 434.598,28.135 434.598,28.489C434.598,28.543 434.617,28.593 434.63,28.643C434.32,28.694 434.076,28.946 434.076,29.265C434.076,29.617 434.372,29.905 434.733,29.905L434.733,30.113C434.733,30.213 434.794,30.293 434.872,30.293L435.076,30.293L432.266,46.205L429.333,62.818L428.533,62.818L428.533,63.375L429.069,63.375L429.069,63.726L429.662,64.202L429.662,64.763L430.018,64.763L430.018,69.667L404.18,69.667L404.18,69.101L404.537,69.101L404.537,68.539L405.13,68.062L405.13,67.711L405.666,67.711L405.666,67.154L404.868,67.154L401.934,50.541L399.124,34.629L399.329,34.629C399.405,34.629 399.466,34.549 399.466,34.45L399.466,34.242C399.828,34.242 400.124,33.954 400.124,33.601C400.124,33.283 399.88,33.03 399.57,32.981C399.584,32.93 399.602,32.881 399.602,32.825C399.602,32.473 399.306,32.185 398.945,32.185C398.585,32.185 398.29,32.473 398.29,32.825C398.29,32.881 398.309,32.929 398.322,32.981C398.012,33.03 397.769,33.283 397.769,33.601C397.769,33.954 398.062,34.242 398.424,34.242L398.424,34.45C398.424,34.549 398.488,34.629 398.562,34.629L398.766,34.629L395.958,50.541L393.024,67.154L392.224,67.154L392.224,67.711L392.76,67.711L392.76,68.062L393.356,68.539L393.356,69.101L393.713,69.101L393.713,69.667L375.878,69.667L375.878,64.763L376.234,64.763L376.234,64.203L376.83,63.726L376.83,63.375L377.366,63.375L377.366,62.818L376.565,62.818L373.632,46.205L370.822,30.293L371.025,30.293C371.102,30.293 371.165,30.213 371.165,30.113L371.165,29.905C371.528,29.905 371.821,29.617 371.821,29.265C371.821,28.946 371.58,28.694 371.268,28.643C371.281,28.593 371.3,28.543 371.3,28.489C371.3,28.135 371.005,27.847 370.644,27.847C370.282,27.847 369.988,28.135 369.988,28.489C369.988,28.543 370.006,28.593 370.02,28.643C369.71,28.694 369.465,28.946 369.465,29.265C369.465,29.617 369.762,29.905 370.122,29.905L370.122,30.113C370.122,30.213 370.185,30.293 370.261,30.293L370.465,30.293L367.657,46.205L364.722,62.818L363.924,62.818L363.924,63.375L364.458,63.375L364.458,63.726L365.053,64.203L365.053,64.763L365.41,64.763L365.41,79.55L365.134,79.55L365.134,81.07L359.322,81.07L357.233,83.805L357.018,85.095L360.308,82.595L361.38,82.595L361.38,83.502L363.572,83.502L363.572,83.993L365.134,85.069L365.134,161.663L364.158,161.663L364.158,254.202L365.134,254.202L365.134,373.823L467.038,373.823L467.038,254.202L468.266,254.202L468.266,162.883L469.753,162.883L469.753,161.423L469.056,161.423L469.056,161.043L468.486,161.043L468.486,159.269L467.038,157.434L467.038,87.625L468.353,86.719L468.353,86.403L469.769,86.403L469.769,85.817L470.461,85.817L472.586,87.431L472.446,86.598ZM1490.18,222.174L1469.99,222.174L1469.99,217.471C1470.8,217.355 1471.37,217.078 1471.37,216.754C1471.37,216.431 1470.8,216.154 1469.99,216.038L1469.99,189.159C1470.8,189.081 1471.37,188.893 1471.37,188.671C1471.37,188.451 1470.8,188.263 1469.99,188.185L1469.99,183.295C1470.59,183.138 1470.98,182.871 1470.98,182.569C1470.98,182.431 1470.89,182.302 1470.75,182.186C1471.13,181.989 1471.37,181.722 1471.37,181.427C1471.37,180.971 1470.8,180.578 1469.99,180.415L1469.99,163.819C1470.82,163.689 1471.34,163.389 1471.34,162.694C1471.34,162.115 1470.98,161.581 1470.38,161.138L1468.33,151.513L1466.09,141.071L1463.86,151.513L1461.9,160.674L1456.46,160.674L1451.49,138.298L1444.92,108.727L1445.04,108.727L1445.04,105.619C1445.54,105.545 1445.87,105.431 1445.87,105.303C1445.87,105.189 1445.61,105.085 1445.2,105.009C1445.2,104.998 1445.21,104.989 1445.21,104.977L1445.21,104.565C1445.21,104.431 1445.13,104.326 1445.03,104.326L1444.59,104.326L1444.59,102.007L1445.03,102.007C1445.13,102.007 1445.21,101.923 1445.21,101.825L1445.21,101.511C1445.21,101.413 1445.13,101.331 1445.03,101.331L1444.82,101.331L1444.82,98.529C1445.08,98.285 1445.23,97.958 1445.31,97.595C1445.65,97.523 1445.87,97.429 1445.87,97.327C1445.87,97.227 1445.66,97.135 1445.34,97.063C1445.26,96.33 1444.74,95.751 1444.04,95.571L1443.84,89.001L1443.69,84.178C1443.99,84.138 1444.22,83.895 1444.22,83.591C1444.22,83.275 1443.97,83.022 1443.65,82.998L1443.61,81.635L1443.57,82.998C1443.26,83.021 1443.01,83.275 1443.01,83.591C1443.01,83.895 1443.24,84.138 1443.53,84.178L1443.38,89.001L1443.18,95.571C1442.48,95.754 1441.96,96.331 1441.88,97.063C1441.56,97.135 1441.35,97.226 1441.35,97.327C1441.35,97.429 1441.57,97.523 1441.92,97.595C1441.99,97.957 1442.15,98.285 1442.41,98.529L1442.41,101.331L1442.2,101.331C1442.1,101.331 1442.02,101.413 1442.02,101.511L1442.02,101.825C1442.02,101.923 1442.1,102.007 1442.2,102.007L1442.63,102.007L1442.63,104.326L1442.2,104.326C1442.1,104.326 1442.02,104.431 1442.02,104.565L1442.02,104.977C1442.02,104.989 1442.03,104.997 1442.03,105.009C1441.61,105.085 1441.35,105.189 1441.35,105.303C1441.35,105.431 1441.68,105.545 1442.18,105.621L1442.18,108.727L1442.31,108.727L1435.74,138.298L1430.77,160.674L1425.33,160.674L1423.36,151.513L1421.13,141.071L1418.9,151.513L1416.84,161.138C1416.25,161.581 1415.89,162.115 1415.89,162.694C1415.89,163.389 1416.41,163.689 1417.23,163.819L1417.23,180.415C1416.43,180.578 1415.86,180.971 1415.86,181.427C1415.86,181.722 1416.1,181.989 1416.48,182.186C1416.33,182.302 1416.24,182.431 1416.24,182.569C1416.24,182.871 1416.64,183.138 1417.23,183.295L1417.23,188.185C1416.43,188.263 1415.86,188.451 1415.86,188.671C1415.86,188.893 1416.43,189.081 1417.23,189.159L1417.23,216.038C1416.43,216.154 1415.86,216.431 1415.86,216.754C1415.86,217.078 1416.43,217.355 1417.23,217.471L1417.23,222.174L1385.03,222.174L1385.03,195.11L1385.19,195.11C1385.22,195.11 1385.26,195.077 1385.26,195.037L1385.26,194.678C1385.26,194.638 1385.22,194.607 1385.19,194.607L1384.46,194.607L1384.46,155.241C1384.69,155.102 1384.86,154.858 1384.86,154.567C1384.86,154.13 1384.5,153.774 1384.06,153.774C1383.63,153.774 1383.27,154.13 1383.27,154.567C1383.27,154.859 1383.43,155.105 1383.67,155.242L1383.67,194.607L1382.94,194.607C1382.9,194.607 1382.87,194.638 1382.87,194.678L1382.87,195.037C1382.87,195.077 1382.9,195.11 1382.94,195.11L1383.1,195.11L1383.1,222.174L1354.12,222.174L1353.55,219.627L1353.61,219.627L1353.61,218.055C1353.86,218.017 1354.03,217.962 1354.03,217.898C1354.03,217.841 1353.9,217.787 1353.69,217.75C1353.69,217.743 1353.7,217.739 1353.7,217.733L1353.7,217.525C1353.7,217.458 1353.66,217.405 1353.61,217.405L1353.39,217.405L1353.39,216.234L1353.61,216.234C1353.66,216.234 1353.7,216.193 1353.7,216.143L1353.7,215.983C1353.7,215.933 1353.66,215.894 1353.61,215.894L1353.5,215.894L1353.5,214.477C1353.63,214.353 1353.71,214.187 1353.75,214.005C1353.92,213.967 1354.03,213.922 1354.03,213.87C1354.03,213.821 1353.92,213.777 1353.77,213.741C1353.73,213.369 1353.46,213.077 1353.11,212.983L1352.93,207.223C1353.08,207.202 1353.2,207.087 1353.2,206.934C1353.2,206.777 1353.07,206.653 1352.91,206.641L1352.89,205.946L1352.87,206.641C1352.71,206.651 1352.59,206.777 1352.59,206.934C1352.59,207.089 1352.71,207.202 1352.85,207.223L1352.78,209.666L1352.68,212.983C1352.32,213.074 1352.06,213.369 1352.02,213.741C1351.86,213.777 1351.76,213.821 1351.76,213.87C1351.76,213.922 1351.87,213.967 1352.04,214.005C1352.07,214.187 1352.15,214.353 1352.28,214.478L1352.28,215.894L1352.18,215.894C1352.13,215.894 1352.09,215.933 1352.09,215.983L1352.09,216.143C1352.09,216.193 1352.13,216.234 1352.18,216.234L1352.4,216.234L1352.4,217.405L1352.18,217.405C1352.13,217.405 1352.09,217.458 1352.09,217.525L1352.09,217.733C1352.09,217.739 1352.09,217.743 1352.09,217.75C1351.88,217.787 1351.76,217.841 1351.76,217.898C1351.76,217.962 1351.92,218.017 1352.17,218.055L1352.17,219.627L1352.24,219.627L1351.67,222.174L1336.39,222.174L1336.39,228.946L1335.31,224.11L1331.55,207.183L1331.63,207.183L1331.63,205.403C1331.91,205.361 1332.1,205.298 1332.1,205.225C1332.1,205.159 1331.95,205.099 1331.71,205.057C1331.71,205.049 1331.72,205.045 1331.72,205.037L1331.72,204.802C1331.72,204.726 1331.67,204.665 1331.61,204.665L1331.37,204.665L1331.37,203.338L1331.61,203.338C1331.67,203.338 1331.72,203.291 1331.72,203.234L1331.72,203.055C1331.72,202.998 1331.67,202.951 1331.61,202.951L1331.5,202.951L1331.5,201.346C1331.65,201.206 1331.74,201.018 1331.78,200.81C1331.97,200.769 1332.1,200.717 1332.1,200.659C1332.1,200.602 1331.98,200.553 1331.8,200.511C1331.75,200.09 1331.45,199.758 1331.05,199.654L1330.93,195.894L1330.85,193.123C1331.02,193.099 1331.15,192.97 1331.15,192.797C1331.15,192.617 1331.01,192.477 1330.83,192.462L1330.81,191.677L1330.78,192.463C1330.6,192.478 1330.46,192.617 1330.46,192.797C1330.46,192.97 1330.6,193.098 1330.76,193.123L1330.68,195.894L1330.56,199.655C1330.16,199.761 1329.86,200.091 1329.82,200.511C1329.64,200.553 1329.51,200.602 1329.51,200.659C1329.51,200.717 1329.64,200.769 1329.83,200.81C1329.88,201.017 1329.97,201.203 1330.11,201.345L1330.11,202.951L1330,202.951C1329.94,202.951 1329.89,202.998 1329.89,203.055L1329.89,203.234C1329.89,203.291 1329.94,203.338 1330,203.338L1330.25,203.338L1330.25,204.665L1330,204.665C1329.94,204.665 1329.89,204.726 1329.89,204.802L1329.89,205.037C1329.89,205.045 1329.9,205.049 1329.9,205.057C1329.66,205.099 1329.51,205.159 1329.51,205.225C1329.51,205.298 1329.7,205.361 1329.99,205.403L1329.99,207.183L1330.06,207.183L1326.3,224.11L1321.91,243.843L1321.32,243.843L1321.32,369.606L1338.87,369.606L1338.87,358.941L1505.25,358.941L1505.25,241.991L1490.18,222.174ZM687.444,249.812L687.444,363.829L1196.04,363.829L1196.04,361.597L1196.75,361.597L1196.75,359.436L1196.04,359.436L1196.04,357.678L1196.75,357.678L1196.75,355.517L1196.04,355.517L1196.04,353.76L1196.75,353.76L1196.75,351.597L1196.04,351.597L1196.04,349.84L1196.75,349.84L1196.75,347.68L1196.04,347.68L1196.04,345.921L1196.75,345.921L1196.75,343.76L1196.04,343.76L1196.04,342.001L1196.75,342.001L1196.75,339.841L1196.04,339.841L1196.04,338.082L1196.75,338.082L1196.75,335.921L1196.04,335.921L1196.04,334.802L1197.03,334.802L1197.03,332.482L1196.18,332.482L1196.18,332.322L1193.8,331.614L1193.8,254.59L1197.11,252.757L1197.11,251.73L1198.52,251.73L1198.52,251.45L1199.54,251.45L1199.54,248.838L1195.74,248.838L1195.74,245.128L1193.4,245.128L1193.4,237.009L1199.54,237.009L1199.54,235.514L1143.01,235.514L1143.01,232.938L1141.68,232.938L1141.68,215.646L1142.75,215.646L1142.75,214.184L1140.34,211.6L1132.44,211.6L1130.03,214.184L1130.03,215.646L1131.1,215.646L1131.1,232.938L1129.78,232.938L1129.78,235.514L1089.66,235.514L1089.66,232.938L1088.34,232.938L1088.34,215.646L1089.4,215.646L1089.4,214.184L1087,211.6L1079.1,211.6L1076.69,214.184L1076.69,215.646L1077.75,215.646L1077.75,232.938L1076.43,232.938L1076.43,235.514L1036.32,235.514L1036.32,232.938L1034.99,232.938L1034.99,215.646L1036.06,215.646L1036.06,214.184L1033.65,211.6L1025.75,211.6L1023.34,214.184L1023.34,215.646L1024.41,215.646L1024.41,232.938L1023.09,232.938L1023.09,235.514L1003.32,235.514L972.58,216.234L941.281,196.605L940.979,173.365L940.62,145.453L940.263,173.365L939.96,196.605L908.661,216.234L877.921,235.514L858.153,235.514L858.153,232.938L856.831,232.938L856.831,215.646L857.9,215.646L857.9,214.184L855.491,211.6L847.591,211.6L845.184,214.184L845.184,215.646L846.248,215.646L846.248,232.938L844.924,232.938L844.924,235.514L681.699,235.514L681.699,237.009L816.735,237.009L816.735,245.128L685.504,245.128L685.504,249.258L807.563,248.237L808.136,253.074L687.444,249.812ZM1092.35,245.128L1091.2,245.128L1091.2,237.009L1092.35,237.009L1092.35,245.128ZM1090.06,245.128L1088.91,245.128L1088.91,237.009L1090.06,237.009L1090.06,245.128ZM1087.76,245.128L1086.62,245.128L1086.62,237.009L1087.76,237.009L1087.76,245.128ZM1079.41,245.128L1078.27,245.128L1078.27,237.009L1079.41,237.009L1079.41,245.128ZM1077.12,245.128L1075.97,245.128L1075.97,237.009L1077.12,237.009L1077.12,245.128ZM1074.83,245.128L1073.68,245.128L1073.68,237.009L1074.83,237.009L1074.83,245.128ZM1072.53,245.128L1071.38,245.128L1071.38,237.009L1072.53,237.009L1072.53,245.128ZM1070.24,245.128L1069.09,245.128L1069.09,237.009L1070.24,237.009L1070.24,245.128ZM1067.94,245.128L1066.8,245.128L1066.8,237.009L1067.94,237.009L1067.94,245.128ZM1065.65,245.128L1064.51,245.128L1064.51,237.009L1065.65,237.009L1065.65,245.128ZM1063.36,245.128L1062.21,245.128L1062.21,237.009L1063.36,237.009L1063.36,245.128ZM874.711,245.128L873.565,245.128L873.565,237.009L874.711,237.009L874.711,245.128ZM872.419,245.128L871.272,245.128L871.272,237.009L872.419,237.009L872.419,245.128ZM870.132,245.128L868.98,245.128L868.98,237.009L870.132,237.009L870.132,245.128ZM867.839,245.128L866.687,245.128L866.687,237.009L867.839,237.009L867.839,245.128ZM1106.11,245.128L1104.96,245.128L1104.96,237.009L1106.11,237.009L1106.11,245.128ZM865.539,245.128L864.393,245.128L864.393,237.009L865.539,237.009L865.539,245.128ZM863.252,245.128L862.1,245.128L862.1,237.009L863.252,237.009L863.252,245.128ZM860.959,245.128L859.808,245.128L859.808,237.009L860.959,237.009L860.959,245.128ZM858.667,245.128L857.515,245.128L857.515,237.009L858.667,237.009L858.667,245.128ZM856.372,245.128L855.221,245.128L855.221,237.009L856.372,237.009L856.372,245.128ZM848.016,245.128L846.871,245.128L846.871,237.009L848.016,237.009L848.016,245.128ZM845.724,245.128L844.577,245.128L844.577,237.009L845.724,237.009L845.724,245.128ZM841.137,245.128L839.992,245.128L839.992,237.009L841.137,237.009L841.137,245.128ZM838.844,245.128L837.699,245.128L837.699,237.009L838.844,237.009L838.844,245.128ZM836.551,245.128L835.405,245.128L835.405,237.009L836.551,237.009L836.551,245.128ZM834.257,245.128L833.112,245.128L833.112,237.009L834.257,237.009L834.257,245.128ZM831.972,245.128L830.82,245.128L830.82,237.009L831.972,237.009L831.972,245.128ZM829.677,245.128L828.527,245.128L828.527,237.009L829.677,237.009L829.677,245.128ZM821.32,245.128L820.175,245.128L820.175,237.009L821.32,237.009L821.32,245.128ZM819.028,245.128L817.881,245.128L817.881,237.009L819.028,237.009L819.028,245.128ZM1186.19,245.128L1185.05,245.128L1185.05,237.009L1186.19,237.009L1186.19,245.128ZM1183.9,245.128L1182.75,245.128L1182.75,237.009L1183.9,237.009L1183.9,245.128ZM1181.61,245.128L1180.46,245.128L1180.46,237.009L1181.61,237.009L1181.61,245.128ZM1179.31,245.128L1178.17,245.128L1178.17,237.009L1179.31,237.009L1179.31,245.128ZM1177.03,245.128L1175.88,245.128L1175.88,237.009L1177.03,237.009L1177.03,245.128ZM1174.73,245.128L1173.58,245.128L1173.58,237.009L1174.73,237.009L1174.73,245.128ZM1172.44,245.128L1171.29,245.128L1171.29,237.009L1172.44,237.009L1172.44,245.128ZM1170.14,245.128L1169,245.128L1169,237.009L1170.14,237.009L1170.14,245.128ZM1167.85,245.128L1166.71,245.128L1166.71,237.009L1167.85,237.009L1167.85,245.128ZM1159.5,245.128L1158.35,245.128L1158.35,237.009L1159.5,237.009L1159.5,245.128ZM1157.2,245.128L1156.06,245.128L1156.06,237.009L1157.2,237.009L1157.2,245.128ZM1154.91,245.128L1153.77,245.128L1153.77,237.009L1154.91,237.009L1154.91,245.128ZM1152.62,245.128L1151.47,245.128L1151.47,237.009L1152.62,237.009L1152.62,245.128ZM1150.32,245.128L1149.18,245.128L1149.18,237.009L1150.32,237.009L1150.32,245.128ZM1148.03,245.128L1146.88,245.128L1146.88,237.009L1148.03,237.009L1148.03,245.128ZM1145.74,245.128L1144.59,245.128L1144.59,237.009L1145.74,237.009L1145.74,245.128ZM1143.44,245.128L1142.3,245.128L1142.3,237.009L1143.44,237.009L1143.44,245.128ZM1141.15,245.128L1140.01,245.128L1140.01,237.009L1141.15,237.009L1141.15,245.128ZM1132.8,245.128L1131.66,245.128L1131.66,237.009L1132.8,237.009L1132.8,245.128ZM1130.51,245.128L1129.36,245.128L1129.36,237.009L1130.51,237.009L1130.51,245.128ZM1128.21,245.128L1127.07,245.128L1127.07,237.009L1128.21,237.009L1128.21,245.128ZM1125.92,245.128L1124.78,245.128L1124.78,237.009L1125.92,237.009L1125.92,245.128ZM1123.63,245.128L1122.48,245.128L1122.48,237.009L1123.63,237.009L1123.63,245.128ZM1121.34,245.128L1120.19,245.128L1120.19,237.009L1121.34,237.009L1121.34,245.128ZM1119.04,245.128L1117.9,245.128L1117.9,237.009L1119.04,237.009L1119.04,245.128ZM1116.75,245.128L1115.6,245.128L1115.6,237.009L1116.75,237.009L1116.75,245.128ZM1114.46,245.128L1113.31,245.128L1113.31,237.009L1114.46,237.009L1114.46,245.128ZM843.429,245.128L842.284,245.128L842.284,237.009L843.429,237.009L843.429,245.128ZM1103.81,245.128L1102.67,245.128L1102.67,237.009L1103.81,237.009L1103.81,245.128ZM1101.52,245.128L1100.38,245.128L1100.38,237.009L1101.52,237.009L1101.52,245.128ZM1099.23,245.128L1098.08,245.128L1098.08,237.009L1099.23,237.009L1099.23,245.128ZM1096.93,245.128L1095.79,245.128L1095.79,237.009L1096.93,237.009L1096.93,245.128ZM1094.64,245.128L1093.5,245.128L1093.5,237.009L1094.64,237.009L1094.64,245.128ZM1009.97,244.838L1008.82,244.838L1008.82,237.008L1009.97,237.008L1009.97,244.838ZM1012.26,244.838L1011.12,244.838L1011.12,237.008L1012.26,237.008L1012.26,244.838ZM1014.56,240.62L1013.5,240.62L1013.5,244.838L1013.41,244.838L1013.41,237.009L1014.56,237.009L1014.56,240.62ZM1007.68,244.838L1006.53,244.838L1006.53,237.008L1007.68,237.008L1007.68,244.838ZM1052.72,244.838L1051.57,244.838L1051.57,237.008L1052.72,237.008L1052.72,244.838ZM1061.07,244.838L1059.92,244.838L1059.92,237.008L1061.07,237.008L1061.07,244.838ZM1016.85,240.62L1015.7,240.62L1015.7,237.009L1016.85,237.009L1016.85,240.62ZM1019.14,240.62L1018,240.62L1018,237.009L1019.14,237.009L1019.14,240.62ZM1021.43,240.62L1020.29,240.62L1020.29,237.009L1021.43,237.009L1021.43,240.62ZM1026.02,240.62L1024.87,240.62L1024.87,237.009L1026.02,237.009L1026.02,240.62ZM1034.37,240.62L1033.22,240.62L1033.22,237.009L1034.37,237.009L1034.37,240.62ZM1036.66,240.62L1035.52,240.62L1035.52,237.009L1036.66,237.009L1036.66,240.62ZM1038.96,240.62L1037.81,240.62L1037.81,237.009L1038.96,237.009L1038.96,240.62ZM1041.25,240.62L1040.1,240.62L1040.1,237.009L1041.25,237.009L1041.25,240.62ZM1045.84,240.62L1044.69,240.62L1044.69,237.009L1045.84,237.009L1045.84,240.62ZM1048.13,240.62L1046.98,240.62L1046.98,237.009L1048.13,237.009L1048.13,240.62ZM1050.42,240.62L1049.28,240.62L1049.28,237.009L1050.42,237.009L1050.42,240.62ZM1043.54,240.62L1042.4,240.62L1042.4,237.009L1043.54,237.009L1043.54,240.62ZM1023.73,240.62L1022.58,240.62L1022.58,237.009L1023.73,237.009L1023.73,240.62ZM454.317,76.837C454.317,76.123 454.569,75.585 454.876,75.643C455.182,75.699 455.434,76.331 455.434,77.045L455.434,81.937L454.317,81.729L454.317,76.837ZM452.828,76.559C452.828,75.846 453.08,75.31 453.386,75.366C453.694,75.422 453.945,76.054 453.945,76.767L453.945,81.661L452.828,81.451L452.828,76.559ZM451.34,76.283C451.34,75.569 451.592,75.033 451.898,75.089C452.206,75.147 452.458,75.777 452.458,76.491L452.458,81.383L451.34,81.177L451.34,76.283ZM449.852,76.007C449.852,75.293 450.102,74.755 450.409,74.814C450.717,74.87 450.968,75.501 450.968,76.215L450.968,81.107L449.852,80.899L449.852,76.007ZM448.362,75.731C448.362,75.017 448.613,74.481 448.921,74.537C449.228,74.593 449.48,75.225 449.48,75.938L449.48,80.83L448.362,80.622L448.362,75.731ZM446.873,75.454C446.873,74.739 447.125,74.203 447.433,74.259C447.74,74.318 447.99,74.947 447.99,75.662L447.99,80.554L446.873,80.346L446.873,75.454ZM445.385,75.178C445.385,74.463 445.637,73.926 445.944,73.983C446.252,74.041 446.502,74.671 446.502,75.386L446.502,80.278L445.385,80.07L445.385,75.178ZM443.896,74.901C443.896,74.187 444.148,73.649 444.454,73.707C444.762,73.763 445.014,74.395 445.014,75.109L445.014,80.001L443.896,79.793L443.896,74.901ZM442.408,74.625C442.408,73.91 442.658,73.374 442.966,73.43C443.273,73.489 443.525,74.118 443.525,74.831L443.525,79.723L442.408,79.517L442.408,74.625ZM376.88,74.085C376.88,73.371 377.464,72.786 378.178,72.786C378.892,72.786 379.474,73.371 379.474,74.085L379.474,78.977L376.88,78.977L376.88,74.085ZM425.288,74.085C425.288,73.371 425.872,72.786 426.586,72.786C427.298,72.786 427.884,73.371 427.884,74.085L427.884,78.977L425.288,78.977L425.288,74.085ZM421.829,74.085C421.829,73.371 422.414,72.786 423.128,72.786C423.842,72.786 424.426,73.371 424.426,74.085L424.426,78.977L421.829,78.977L421.829,74.085ZM418.373,74.085C418.373,73.371 418.957,72.786 419.67,72.786C420.384,72.786 420.968,73.371 420.968,74.085L420.968,78.977L418.373,78.977L418.373,74.085ZM414.914,74.085C414.914,73.371 415.498,72.786 416.213,72.786C416.926,72.786 417.509,73.371 417.509,74.085L417.509,78.977L414.914,78.977L414.914,74.085ZM411.457,74.085C411.457,73.371 412.042,72.786 412.756,72.786C413.469,72.786 414.052,73.371 414.052,74.085L414.052,78.977L411.457,78.977L411.457,74.085ZM408,74.085C408,73.371 408.582,72.786 409.298,72.786C410.01,72.786 410.594,73.371 410.594,74.085L410.594,78.977L408,78.977L408,74.085ZM404.541,74.085C404.541,73.371 405.125,72.786 405.841,72.786C406.553,72.786 407.137,73.371 407.137,74.085L407.137,78.977L404.541,78.977L404.541,74.085ZM397.626,74.085C397.626,73.371 398.21,72.786 398.924,72.786C399.638,72.786 400.222,73.371 400.222,74.085L400.222,78.977L397.626,78.977L397.626,74.085ZM394.168,74.085C394.168,73.371 394.753,72.786 395.466,72.786C396.181,72.786 396.764,73.371 396.764,74.085L396.764,78.977L394.168,78.977L394.168,74.085ZM401.084,74.085C401.084,73.371 401.668,72.786 402.381,72.786C403.096,72.786 403.68,73.371 403.68,74.085L403.68,78.977L401.084,78.977L401.084,74.085ZM390.712,74.085C390.712,73.371 391.294,72.786 392.009,72.786C392.722,72.786 393.306,73.371 393.306,74.085L393.306,78.977L390.712,78.977L390.712,74.085ZM387.252,74.085C387.252,73.371 387.836,72.786 388.552,72.786C389.264,72.786 389.849,73.371 389.849,74.085L389.849,78.977L387.252,78.977L387.252,74.085ZM383.794,74.085C383.794,73.371 384.38,72.786 385.093,72.786C385.806,72.786 386.39,73.371 386.39,74.085L386.39,78.977L383.794,78.977L383.794,74.085ZM380.337,74.085C380.337,73.371 380.921,72.786 381.634,72.786C382.349,72.786 382.934,73.371 382.934,74.085L382.934,78.977L380.337,78.977L380.337,74.085Z" style="fill:rgb(217,173,2);"/>
        </g>
    </g>
</svg>
